<svg width="77" height="82" viewBox="0 0 77 82" fill="none" xmlns="http://www.w3.org/2000/svg">
<path d="M38.5 59C49.8218 59 59 49.8218 59 38.5C59 27.1782 49.8218 18 38.5 18C27.1782 18 18 27.1782 18 38.5C18 49.8218 27.1782 59 38.5 59Z" fill="#FFC000"/>
<path fill-rule="evenodd" clip-rule="evenodd" d="M38.5001 3.37764L3.42812 14.0686V37.8436C3.42812 47.6126 7.61412 56.4736 13.6431 63.4546C20.6851 71.6076 30.1981 77.1826 38.5001 78.6596C46.8031 77.1826 56.3161 71.6076 63.3581 63.4546C69.3871 56.4736 73.5731 47.6126 73.5731 37.8426V14.0686L38.5001 3.37764ZM54.2111 27.5576C55.5881 26.2626 57.5561 28.3526 56.1791 29.6506L39.8981 45.0196C39.3141 45.5706 38.3981 45.5406 37.8351 44.9226L37.8331 44.9236L30.7111 36.8476C29.4601 35.4276 31.6181 33.5246 32.8711 34.9466L39.0091 41.9066L54.2111 27.5576ZM56.1361 35.3346C55.8251 33.4696 58.6571 32.9956 58.9711 34.8626C61.1031 47.5686 51.3481 59.1056 38.5001 59.1056C20.0641 59.1056 10.7681 36.7096 23.8181 23.6596C31.5591 15.9186 43.9351 15.5426 52.1311 22.6786C53.5601 23.9226 51.6701 26.0936 50.2421 24.8496C38.7681 14.8596 20.6161 22.9596 20.6161 38.3406C20.6161 54.2256 39.9101 62.2226 51.1461 50.9866C55.1891 46.9446 57.1161 41.1466 56.1361 35.3346ZM1.57212 11.6356L38.0731 0.509641C38.3381 0.426641 38.6301 0.419641 38.9161 0.506641L75.3011 11.5976C75.9581 11.7316 76.4521 12.3126 76.4521 13.0086V37.8436C76.4521 59.1586 57.4401 78.0626 38.7821 81.5276C38.6161 81.5616 38.4411 81.5656 38.2631 81.5356C29.2941 80.0206 19.0111 74.0636 11.4711 65.3336C5.02312 57.8676 0.547119 48.3626 0.547119 37.8436V13.0086H0.55312C0.55312 12.3926 0.953119 11.8236 1.57212 11.6356Z" fill="#000000"/>
</svg>
