<svg width="104" height="104" viewBox="0 0 104 104" fill="none" xmlns="http://www.w3.org/2000/svg">
<path d="M48 77C64.0163 77 77 64.0163 77 48C77 31.9837 64.0163 19 48 19C31.9837 19 19 31.9837 19 48C19 64.0163 31.9837 77 48 77Z" fill="#FFC000"/>
<mask id="mask0_309_16" style="mask-type:luminance" maskUnits="userSpaceOnUse" x="0" y="0" width="96" height="96">
<path d="M47.84 75.6456C42.2578 75.6885 36.7886 74.0849 32.1264 71.0383C27.4641 67.9917 23.8191 63.6393 21.6538 58.5336C19.4885 53.4279 18.9005 47.7989 19.9645 42.3611C21.0285 36.9232 23.6964 31.9215 27.6298 27.9908C31.5632 24.0601 36.5847 21.3775 42.0571 20.2834C47.5295 19.1893 53.2061 19.7331 58.3666 21.8457C63.527 23.9584 67.9386 27.5446 71.0416 32.1494C74.1446 36.7542 75.7992 42.1699 75.7952 47.7094C75.7976 49.2901 75.6619 50.8681 75.3896 52.4256L91.1976 68.2152C91.2454 68.1323 91.2871 68.0461 91.3224 67.9572C92.3139 65.2671 93.2984 62.5736 94.276 59.8766C94.3734 59.5768 94.3587 59.2521 94.2345 58.9622C94.1104 58.6722 93.8851 58.4363 93.6 58.2977C91.2496 56.5639 88.9096 54.8198 86.5488 53.1377C86.2091 52.9202 85.9406 52.6091 85.7762 52.2425C85.6118 51.8759 85.5586 51.4698 85.6232 51.0737C85.7272 50.2687 85.7688 49.4431 85.8 48.6278C85.8 48.2981 85.8989 47.9757 86.0841 47.7019C86.2693 47.4281 86.5324 47.2151 86.84 47.0902C89.3672 45.8311 91.9048 44.5721 94.4112 43.2821C94.8302 43.0011 95.2173 42.6759 95.5656 42.312V41.3832C95.264 40.1035 94.9416 38.8342 94.6504 37.5442C94.3592 36.2542 94.016 34.6546 93.704 33.2098C93.6935 33.0379 93.6486 32.8699 93.5722 32.7154C93.4957 32.5609 93.389 32.4231 93.2584 32.3098C93.1278 32.1965 92.9758 32.1101 92.8113 32.0555C92.6468 32.001 92.473 31.9794 92.3 31.992C89.3568 31.7959 86.424 31.5998 83.4912 31.4347C83.1248 31.4448 82.7636 31.3474 82.4528 31.1546C82.1419 30.9619 81.8954 30.6824 81.744 30.3511C81.432 29.7216 81.0888 29.1024 80.704 28.4935C80.5085 28.1976 80.4043 27.8515 80.4043 27.4976C80.4043 27.1438 80.5085 26.7977 80.704 26.5018C82.1808 24.0456 83.6368 21.5688 85.0928 19.1023C85.2252 18.9558 85.3246 18.783 85.3843 18.5954C85.444 18.4077 85.4626 18.2096 85.439 18.0142C85.4154 17.8189 85.35 17.6308 85.2473 17.4625C85.1445 17.2942 85.0068 17.1496 84.8432 17.0383L79.0504 11.125C78.948 10.9639 78.8115 10.8268 78.6503 10.7234C78.4891 10.62 78.3072 10.5527 78.1171 10.5262C77.9271 10.4997 77.7334 10.5146 77.5498 10.5699C77.3661 10.6251 77.1968 10.7195 77.0536 10.8463C74.5472 12.2292 72.0304 13.6121 69.5344 15.0362C69.2149 15.255 68.8358 15.3722 68.4476 15.3722C68.0594 15.3722 67.6803 15.255 67.3608 15.0362C66.8096 14.6854 66.2168 14.3758 65.6344 14.0558C65.3435 13.8879 65.1062 13.642 64.9498 13.3462C64.7935 13.0505 64.7243 12.717 64.7504 12.384C64.6672 9.53568 64.5632 6.68736 64.4592 3.83904C64.4592 2.48712 64.2304 2.28072 62.8888 1.9608L55.3592 0.16512C55.2189 0.12346 55.083 0.0681517 54.9536 0H54.0176C53.6826 0.393831 53.3768 0.811157 53.1024 1.24872C51.7816 3.65328 50.4816 6.05784 49.2128 8.47272C49.0906 8.83798 48.8444 9.14981 48.5163 9.35497C48.1881 9.56013 47.7984 9.64589 47.4136 9.5976C46.6843 9.57206 45.9541 9.60312 45.2296 9.69048C44.8876 9.72985 44.5415 9.66986 44.2332 9.51782C43.9249 9.36577 43.6677 9.12819 43.4928 8.83392C41.8357 6.4328 40.1717 4.0248 38.5008 1.60992C37.8872 0.71208 37.4608 0.57792 36.4936 0.9288L28.7768 3.59136C28.6025 3.61358 28.435 3.67239 28.2853 3.76386C28.1357 3.85534 28.0074 3.97738 27.909 4.12188C27.8107 4.26637 27.7444 4.43001 27.7147 4.60189C27.685 4.77377 27.6925 4.94995 27.7368 5.11872C27.9344 7.76064 28.0904 10.4129 28.3712 13.0445C28.5243 13.6104 28.4753 14.2114 28.2327 14.7456C27.99 15.2798 27.5687 15.7143 27.04 15.9754C26.4451 16.3105 25.8813 16.6973 25.3552 17.1312C25.0666 17.3633 24.7159 17.5065 24.3463 17.5431C23.9767 17.5798 23.6044 17.5084 23.2752 17.3376L15.2568 14.0146C14.2168 13.6018 13.8632 13.6946 13.1768 14.5306L8.32 20.5781C7.644 21.414 7.6336 21.7649 8.32 22.6421C10.0152 24.8712 11.7 27.121 13.416 29.3398C13.6645 29.6168 13.8247 29.9607 13.8766 30.328C13.9284 30.6953 13.8695 31.0696 13.7072 31.4038C13.2184 32.4358 12.8024 33.5194 12.3656 34.5823C12.2579 34.8842 12.0675 35.1504 11.8158 35.3509C11.5641 35.5514 11.2611 35.6784 10.9408 35.7175C8.0704 36.2232 5.2104 36.7495 2.34 37.2758C1.3 37.4616 0.9568 37.7506 0.8216 38.8651C0.5824 40.9291 0.3536 42.9415 0.1144 44.9849C0.0873113 45.1557 0.0490979 45.3246 0 45.4906V47.6165L5.1064 49.4328C6.448 49.9178 7.7896 50.4648 9.152 50.9086C9.48774 51.0109 9.78542 51.2096 10.0075 51.4795C10.2296 51.7495 10.3662 52.0787 10.4 52.4256C10.6184 53.7259 10.868 55.0366 11.1176 56.3369C11.1966 56.6916 11.1743 57.0612 11.053 57.404C10.9317 57.7468 10.7164 58.0492 10.4312 58.277C8.32 60.2172 6.24 62.1883 4.16 64.1491C3.99704 64.2491 3.85735 64.3822 3.75018 64.5398C3.643 64.6974 3.5708 64.8757 3.53835 65.0631C3.5059 65.2504 3.51394 65.4425 3.56195 65.6265C3.60995 65.8106 3.69682 65.9824 3.8168 66.1306C4.94 68.3081 6.0632 70.4959 7.1864 72.6631C7.6336 73.5403 7.9976 73.6951 8.944 73.5094C11.7832 72.8695 14.6328 72.2503 17.472 71.5898C17.7713 71.5057 18.0885 71.5076 18.3867 71.5953C18.685 71.683 18.952 71.8529 19.1568 72.0852L22.2768 75.336C22.5115 75.5563 22.6797 75.8372 22.7624 76.1471C22.845 76.457 22.839 76.7837 22.7448 77.0904C21.996 79.949 21.2784 82.818 20.5608 85.687C20.4938 85.8402 20.459 86.0054 20.4586 86.1725C20.4582 86.3395 20.4921 86.5049 20.5583 86.6585C20.6245 86.8121 20.7216 86.9507 20.8436 87.0658C20.9656 87.1809 21.1101 87.27 21.268 87.3278L27.7888 91.0121C27.9234 91.121 28.0793 91.201 28.2465 91.2472C28.4138 91.2934 28.589 91.3047 28.7609 91.2805C28.9328 91.2563 29.0978 91.197 29.2455 91.1064C29.3933 91.0158 29.5205 90.8959 29.6192 90.7541C31.6992 88.6901 33.696 86.6261 35.7136 84.5621C35.9475 84.2839 36.2578 84.0793 36.6068 83.973C36.9558 83.8667 37.3284 83.8634 37.6792 83.9635C39.052 84.2938 40.4352 84.6034 41.8392 84.8923C42.178 84.948 42.4934 85.0992 42.7479 85.3279C43.0024 85.5567 43.1852 85.8533 43.2744 86.1823C44.148 88.8449 45.0528 91.4971 45.9056 94.17C46.0511 94.7226 46.3951 95.2033 46.8728 95.5219H50.1904L53.664 95.1194L54.964 94.944C55.952 94.8511 56.2952 94.5622 56.4928 93.6024C57.0856 90.7954 57.6888 87.9883 58.2504 85.1813C58.3106 84.8123 58.4742 84.4677 58.7225 84.1866C58.9707 83.9056 59.2937 83.6995 59.6544 83.592L61.2664 83.0141L53.404 75.1502C51.571 75.5017 49.7068 75.6677 47.84 75.6456Z" fill="white"/>
</mask>
<g mask="url(#mask0_309_16)">
<path d="M47.84 75.6456C42.2578 75.6885 36.7886 74.0849 32.1264 71.0383C27.4641 67.9917 23.8191 63.6393 21.6538 58.5336C19.4885 53.4279 18.9005 47.7989 19.9645 42.3611C21.0285 36.9232 23.6964 31.9215 27.6298 27.9908C31.5632 24.0601 36.5847 21.3775 42.0571 20.2834C47.5295 19.1893 53.2061 19.7331 58.3666 21.8457C63.527 23.9584 67.9386 27.5446 71.0416 32.1494C74.1446 36.7542 75.7992 42.1699 75.7952 47.7094C75.7976 49.2901 75.6619 50.8681 75.3896 52.4256L91.1976 68.2152C91.2454 68.1323 91.2871 68.0461 91.3224 67.9572C92.3139 65.2671 93.2984 62.5736 94.276 59.8766C94.3734 59.5768 94.3587 59.2521 94.2345 58.9622C94.1104 58.6722 93.8851 58.4363 93.6 58.2977C91.2496 56.5639 88.9096 54.8198 86.5488 53.1377C86.2091 52.9202 85.9406 52.6091 85.7762 52.2425C85.6118 51.8759 85.5586 51.4698 85.6232 51.0737C85.7272 50.2687 85.7688 49.4431 85.8 48.6278C85.8 48.2981 85.8989 47.9757 86.0841 47.7019C86.2693 47.4281 86.5324 47.2151 86.84 47.0902C89.3672 45.8311 91.9048 44.5721 94.4112 43.2821C94.8302 43.0011 95.2173 42.6759 95.5656 42.312V41.3832C95.264 40.1035 94.9416 38.8342 94.6504 37.5442C94.3592 36.2542 94.016 34.6546 93.704 33.2098C93.6935 33.0379 93.6486 32.8699 93.5722 32.7154C93.4957 32.5609 93.389 32.4231 93.2584 32.3098C93.1278 32.1965 92.9758 32.1101 92.8113 32.0555C92.6468 32.001 92.473 31.9794 92.3 31.992C89.3568 31.7959 86.424 31.5998 83.4912 31.4347C83.1248 31.4448 82.7636 31.3474 82.4528 31.1546C82.1419 30.9619 81.8954 30.6824 81.744 30.3511C81.432 29.7216 81.0888 29.1024 80.704 28.4935C80.5085 28.1976 80.4043 27.8515 80.4043 27.4976C80.4043 27.1438 80.5085 26.7977 80.704 26.5018C82.1808 24.0456 83.6368 21.5688 85.0928 19.1023C85.2252 18.9558 85.3246 18.783 85.3843 18.5954C85.444 18.4077 85.4626 18.2096 85.439 18.0142C85.4154 17.8189 85.35 17.6308 85.2473 17.4625C85.1445 17.2942 85.0068 17.1496 84.8432 17.0383L79.0504 11.125C78.948 10.9639 78.8115 10.8268 78.6503 10.7234C78.4891 10.62 78.3072 10.5527 78.1171 10.5262C77.9271 10.4997 77.7334 10.5146 77.5498 10.5699C77.3661 10.6251 77.1968 10.7195 77.0536 10.8463C74.5472 12.2292 72.0304 13.6121 69.5344 15.0362C69.2149 15.255 68.8358 15.3722 68.4476 15.3722C68.0594 15.3722 67.6803 15.255 67.3608 15.0362C66.8096 14.6854 66.2168 14.3758 65.6344 14.0558C65.3435 13.8879 65.1062 13.642 64.9498 13.3462C64.7935 13.0505 64.7243 12.717 64.7504 12.384C64.6672 9.53568 64.5632 6.68736 64.4592 3.83904C64.4592 2.48712 64.2304 2.28072 62.8888 1.9608L55.3592 0.16512C55.2189 0.12346 55.083 0.0681517 54.9536 0H54.0176C53.6826 0.393831 53.3768 0.811157 53.1024 1.24872C51.7816 3.65328 50.4816 6.05784 49.2128 8.47272C49.0906 8.83798 48.8444 9.14981 48.5163 9.35497C48.1881 9.56013 47.7984 9.64589 47.4136 9.5976C46.6843 9.57206 45.9541 9.60312 45.2296 9.69048C44.8876 9.72985 44.5415 9.66986 44.2332 9.51782C43.9249 9.36577 43.6677 9.12819 43.4928 8.83392C41.8357 6.4328 40.1717 4.0248 38.5008 1.60992C37.8872 0.71208 37.4608 0.57792 36.4936 0.9288L28.7768 3.59136C28.6025 3.61358 28.435 3.67239 28.2853 3.76386C28.1357 3.85534 28.0074 3.97738 27.909 4.12188C27.8107 4.26637 27.7444 4.43001 27.7147 4.60189C27.685 4.77377 27.6925 4.94995 27.7368 5.11872C27.9344 7.76064 28.0904 10.4129 28.3712 13.0445C28.5243 13.6104 28.4753 14.2114 28.2327 14.7456C27.99 15.2798 27.5687 15.7143 27.04 15.9754C26.4451 16.3105 25.8813 16.6973 25.3552 17.1312C25.0666 17.3633 24.7159 17.5065 24.3463 17.5431C23.9767 17.5798 23.6044 17.5084 23.2752 17.3376L15.2568 14.0146C14.2168 13.6018 13.8632 13.6946 13.1768 14.5306L8.32 20.5781C7.644 21.414 7.6336 21.7649 8.32 22.6421C10.0152 24.8712 11.7 27.121 13.416 29.3398C13.6645 29.6168 13.8247 29.9607 13.8766 30.328C13.9284 30.6953 13.8695 31.0696 13.7072 31.4038C13.2184 32.4358 12.8024 33.5194 12.3656 34.5823C12.2579 34.8842 12.0675 35.1504 11.8158 35.3509C11.5641 35.5514 11.2611 35.6784 10.9408 35.7175C8.0704 36.2232 5.2104 36.7495 2.34 37.2758C1.3 37.4616 0.9568 37.7506 0.8216 38.8651C0.5824 40.9291 0.3536 42.9415 0.1144 44.9849C0.0873113 45.1557 0.0490979 45.3246 0 45.4906V47.6165L5.1064 49.4328C6.448 49.9178 7.7896 50.4648 9.152 50.9086C9.48774 51.0109 9.78542 51.2096 10.0075 51.4795C10.2296 51.7495 10.3662 52.0787 10.4 52.4256C10.6184 53.7259 10.868 55.0366 11.1176 56.3369C11.1966 56.6916 11.1743 57.0612 11.053 57.404C10.9317 57.7468 10.7164 58.0492 10.4312 58.277C8.32 60.2172 6.24 62.1883 4.16 64.1491C3.99704 64.2491 3.85735 64.3822 3.75018 64.5398C3.643 64.6974 3.5708 64.8757 3.53835 65.0631C3.5059 65.2504 3.51394 65.4425 3.56195 65.6265C3.60995 65.8106 3.69682 65.9824 3.8168 66.1306C4.94 68.3081 6.0632 70.4959 7.1864 72.6631C7.6336 73.5403 7.9976 73.6951 8.944 73.5094C11.7832 72.8695 14.6328 72.2503 17.472 71.5898C17.7713 71.5057 18.0885 71.5076 18.3867 71.5953C18.685 71.683 18.952 71.8529 19.1568 72.0852L22.2768 75.336C22.5115 75.5563 22.6797 75.8372 22.7624 76.1471C22.845 76.457 22.839 76.7837 22.7448 77.0904C21.996 79.949 21.2784 82.818 20.5608 85.687C20.4938 85.8402 20.459 86.0054 20.4586 86.1725C20.4582 86.3395 20.4921 86.5049 20.5583 86.6585C20.6245 86.8121 20.7216 86.9507 20.8436 87.0658C20.9656 87.1809 21.1101 87.27 21.268 87.3278L27.7888 91.0121C27.9234 91.121 28.0793 91.201 28.2465 91.2472C28.4138 91.2934 28.589 91.3047 28.7609 91.2805C28.9328 91.2563 29.0978 91.197 29.2455 91.1064C29.3933 91.0158 29.5205 90.8959 29.6192 90.7541C31.6992 88.6901 33.696 86.6261 35.7136 84.5621C35.9475 84.2839 36.2578 84.0793 36.6068 83.973C36.9558 83.8667 37.3284 83.8634 37.6792 83.9635C39.052 84.2938 40.4352 84.6034 41.8392 84.8923C42.178 84.948 42.4934 85.0992 42.7479 85.3279C43.0024 85.5567 43.1852 85.8533 43.2744 86.1823C44.148 88.8449 45.0528 91.4971 45.9056 94.17C46.0511 94.7226 46.3951 95.2033 46.8728 95.5219H50.1904L53.664 95.1194L54.964 94.944C55.952 94.8511 56.2952 94.5622 56.4928 93.6024C57.0856 90.7954 57.6888 87.9883 58.2504 85.1813C58.3106 84.8123 58.4742 84.4677 58.7225 84.1866C58.9707 83.9056 59.2937 83.6995 59.6544 83.592L61.2664 83.0141L53.404 75.1502C51.571 75.5017 49.7068 75.6677 47.84 75.6456Z" stroke="black" stroke-width="6"/>
</g>
<path d="M101.92 91.3627C98.4672 87.8848 94.9832 84.4173 91.52 80.9498L90.324 79.7527C86.632 76.0581 82.9608 72.3429 79.2688 68.6484C75.244 64.6339 71.1984 60.64 67.184 56.6152C66.1944 55.6726 65.4361 54.5171 64.9673 53.2379C64.4985 51.9586 64.3318 50.5897 64.48 49.2364C64.48 48.8649 64.48 48.4934 64.5528 48.1219C64.6115 47.0296 64.5662 45.9343 64.4176 44.8504C63.1904 35.6966 53.404 29.3704 44.5536 32.1052C43.4408 32.4458 43.368 32.6935 44.1896 33.5191L50.2736 39.5769C50.7962 40.0352 51.2159 40.5974 51.5052 41.2271C51.7945 41.8568 51.947 42.5399 51.9529 43.2319C51.9588 43.9239 51.8179 44.6094 51.5393 45.2439C51.2608 45.8783 50.8508 46.4475 50.336 46.9144C49.5664 47.6988 48.776 48.4831 47.996 49.2674C45.5832 51.7029 42.6712 51.6926 40.2688 49.2674C38.376 47.3685 36.4728 45.4696 34.5592 43.5914C33.852 42.9 33.6336 42.9722 33.3528 43.901C33.0722 45.0175 32.9462 46.1667 32.9784 47.3169C32.9234 50.1452 33.6505 52.9344 35.0806 55.3815C36.5107 57.8286 38.5893 59.84 41.0904 61.1973C43.6649 62.5987 46.5821 63.2599 49.5144 63.1065H50.2008C51.4225 63.0519 52.6417 63.2586 53.7758 63.7127C54.9099 64.1667 55.9323 64.8575 56.7736 65.7381C59.228 68.1943 61.6928 70.6298 64.1472 73.086L81.7648 90.6816L92.1648 101.002C92.7842 101.667 93.5334 102.2 94.367 102.568C95.2005 102.937 96.1009 103.134 97.0134 103.146C97.9259 103.159 98.8315 102.987 99.675 102.641C100.518 102.296 101.282 101.784 101.92 101.136C102.576 100.499 103.098 99.7393 103.454 98.9002C103.81 98.061 103.993 97.1597 103.993 96.2492C103.993 95.3387 103.81 94.4374 103.454 93.5982C103.098 92.7591 102.576 91.999 101.92 91.3627Z" fill="black"/>
</svg>
