<svg width="138" height="130" viewBox="0 0 138 130" fill="none" xmlns="http://www.w3.org/2000/svg">
<rect x="4" y="103" width="91" height="24" rx="12" fill="#FFC000"/>
<path d="M84.9139 129.587H15.2683C7.37339 129.587 0.949341 123.163 0.949341 115.268C0.949341 107.373 7.37339 100.949 15.2683 100.949H84.9139C92.8088 100.949 99.2329 107.373 99.2329 115.268C99.2329 123.163 92.8088 129.587 84.9139 129.587ZM15.2683 105.211C9.72149 105.211 5.20251 109.721 5.20251 115.277C5.20251 120.832 9.71263 125.342 15.2683 125.342H84.9139C90.4607 125.342 94.9797 120.832 94.9797 115.277C94.9797 109.721 90.4607 105.211 84.9139 105.211H15.2683Z" fill="black"/>
<path d="M21.7278 121.931C18.0595 121.931 15.0734 118.945 15.0734 115.277C15.0734 111.608 18.0595 108.622 21.7278 108.622C25.3962 108.622 28.3823 111.608 28.3823 115.277C28.3823 118.945 25.3962 121.931 21.7278 121.931ZM21.7278 112.866C20.3987 112.866 19.3266 113.947 19.3266 115.268C19.3266 116.588 20.4076 117.669 21.7278 117.669C23.0569 117.669 24.1291 116.588 24.1291 115.268C24.1291 113.947 23.0569 112.866 21.7278 112.866Z" fill="black"/>
<path d="M40.6367 121.931C36.9683 121.931 33.9823 118.945 33.9823 115.277C33.9823 111.608 36.9683 108.622 40.6367 108.622C44.305 108.622 47.2911 111.608 47.2911 115.277C47.2911 118.945 44.305 121.931 40.6367 121.931ZM40.6367 112.866C39.3076 112.866 38.2354 113.947 38.2354 115.268C38.2354 116.588 39.3164 117.669 40.6367 117.669C41.9569 117.669 43.0379 116.588 43.0379 115.268C43.0379 113.947 41.9569 112.866 40.6367 112.866Z" fill="black"/>
<path d="M59.5455 121.931C55.8772 121.931 52.8911 118.945 52.8911 115.277C52.8911 111.608 55.8772 108.622 59.5455 108.622C63.2139 108.622 66.2 111.608 66.2 115.277C66.2 118.945 63.2139 121.931 59.5455 121.931ZM59.5455 112.866C58.2164 112.866 57.1443 113.947 57.1443 115.268C57.1443 116.588 58.2253 117.669 59.5455 117.669C60.8658 117.669 61.9468 116.588 61.9468 115.268C61.9468 113.947 60.8658 112.866 59.5455 112.866Z" fill="black"/>
<path d="M78.4544 121.931C74.786 121.931 71.8 118.945 71.8 115.277C71.8 111.608 74.786 108.622 78.4544 108.622C82.1228 108.622 85.1088 111.608 85.1088 115.277C85.1088 118.945 82.1228 121.931 78.4544 121.931ZM78.4544 112.866C77.1253 112.866 76.0531 113.947 76.0531 115.268C76.0531 116.588 77.1341 117.669 78.4544 117.669C79.7835 117.669 80.8557 116.588 80.8557 115.268C80.8557 113.947 79.7747 112.866 78.4544 112.866Z" fill="black"/>
<path d="M84.0455 105.211H16.1367C14.9582 105.211 14.0101 104.263 14.0101 103.084V94.693C14.0101 93.5146 14.9582 92.5665 16.1367 92.5665H84.0544C85.2329 92.5665 86.181 93.5146 86.181 94.693V103.084C86.1721 104.254 85.224 105.211 84.0455 105.211ZM18.2633 100.958H81.9278V96.8196H18.2633V100.958Z" fill="black"/>
<path d="M81.4493 88.6412H47.6367C46.4582 88.6412 45.5101 87.6931 45.5101 86.5146V64.3893C45.5101 63.2108 46.4582 62.2627 47.6367 62.2627H68.743C69.505 62.2627 70.205 62.6703 70.5861 63.326L83.2924 85.4513C83.6734 86.107 83.6645 86.9222 83.2924 87.5779C82.9114 88.2336 82.2114 88.6412 81.4493 88.6412ZM49.7633 84.388H77.7721L67.5114 66.5159H49.7633V84.388Z" fill="black"/>
<path d="M86.8101 96.8196H39.8658C38.6873 96.8196 37.7392 95.8715 37.7392 94.6931V61.5627C37.7392 57.5399 41.0088 54.2614 45.0405 54.2614H69.7266C72.3139 54.2614 74.724 55.6526 76.0266 57.8855L91.4 84.2285C92.0468 85.345 92.3924 86.612 92.3924 87.9057V91.2462C92.3835 94.3209 89.8848 96.8196 86.8101 96.8196ZM41.9924 92.5665H86.8101C87.5367 92.5665 88.1304 91.9728 88.1304 91.2462V87.9057C88.1304 87.3652 87.9886 86.8336 87.7139 86.3728L72.3493 60.0298C71.8088 59.0994 70.7987 58.5234 69.7177 58.5234H45.0316C43.3569 58.5234 41.9835 59.888 41.9835 61.5715V92.5665H41.9924Z" fill="black"/>
<path d="M39.8658 96.8196H6.62023C3.49238 96.8196 0.949341 94.2766 0.949341 91.1488V80.3829C0.949341 77.2551 3.49238 74.712 6.62023 74.712H39.8658C41.0443 74.712 41.9924 75.6601 41.9924 76.8386V94.6931C41.9924 95.8715 41.0354 96.8196 39.8658 96.8196ZM6.62023 78.9652C5.84048 78.9652 5.20251 79.6032 5.20251 80.3829V91.1488C5.20251 91.9285 5.84048 92.5665 6.62023 92.5665H37.7392V78.9652H6.62023Z" fill="black"/>
<path d="M25.2898 78.9652H18.8304C17.6519 78.9652 16.7038 78.0171 16.7038 76.8386V65.674C16.7038 63.0335 18.8481 60.8892 21.4886 60.8892H22.6316C25.2721 60.8892 27.4164 63.0335 27.4164 65.674V76.8386C27.4164 78.0082 26.4595 78.9652 25.2898 78.9652ZM20.9569 74.712H23.1633V65.674C23.1633 65.3816 22.924 65.1424 22.6316 65.1424H21.4886C21.1962 65.1424 20.9569 65.3816 20.9569 65.674V74.712Z" fill="black"/>
<path d="M22.0557 65.1424C20.8772 65.1424 19.9291 64.1943 19.9291 63.0158V61.1905C19.9291 56.0867 19.5569 54.4209 16.1455 51.0095C15.3126 50.1766 15.3126 48.8298 16.1455 48.0057C16.9785 47.1817 18.3253 47.1728 19.1493 48.0057C21.3557 50.212 22.5962 52.0196 23.3139 54.0399C24.0316 56.0867 24.1823 58.293 24.1823 61.1905V63.0158C24.1823 64.1854 23.2342 65.1424 22.0557 65.1424Z" fill="black"/>
<path d="M124.468 83.8386C124.459 83.8386 124.451 83.8386 124.433 83.8386C123.254 83.8209 122.324 82.8551 122.342 81.6766L123.228 21.9639C123.237 21.3171 123.059 20.6969 122.705 20.1652L113.694 6.49305C112.515 4.71204 110.344 3.89685 108.289 4.46394C106.871 4.85381 105.71 5.85508 105.108 7.20191C104.505 8.54875 104.54 10.0728 105.205 11.3931L108.2 17.3741C108.501 17.9677 108.501 18.6766 108.2 19.2703C107.899 19.8639 107.34 20.2893 106.685 20.4133L78.1709 25.7298C77.4354 25.8627 76.7709 26.2614 76.3012 26.8285L53.5823 54.2614H64.605L80.1025 35.2817C81.2101 33.926 82.7696 33.0044 84.4886 32.6766L106.197 28.5741C106.773 28.4677 107.376 28.6006 107.846 28.9462C108.315 29.2918 108.634 29.8234 108.705 30.3994L114.996 81.4374C115.138 82.607 114.314 83.6614 113.144 83.812C111.984 83.9538 110.92 83.1298 110.77 81.9601L104.753 33.1639L85.2772 36.8412C84.5418 36.9829 83.8772 37.3817 83.3987 37.9576L67.2633 57.7171C66.8557 58.2133 66.2531 58.4969 65.6152 58.4969H49.0633C48.2392 58.4969 47.4861 58.0184 47.1405 57.2741C46.7861 56.5298 46.9012 55.6437 47.424 55.0146L73.0228 24.0994C74.1304 22.7614 75.681 21.8488 77.3911 21.5298L103.132 16.7184L101.404 13.2627C100.172 10.7994 100.11 7.95508 101.227 5.43862C102.343 2.92217 104.505 1.06141 107.163 0.334827C111 -0.728464 115.058 0.795586 117.247 4.12723L126.258 17.7994C127.082 19.0488 127.508 20.5019 127.481 22.0082L126.595 81.7209C126.577 82.9082 125.629 83.8386 124.468 83.8386Z" fill="black"/>
<path d="M104.018 117.926C103.335 117.926 102.662 117.589 102.263 116.996C101.687 116.145 101.794 115.011 102.52 114.284C102.538 114.266 105.134 111.626 106.384 107.523C108.005 102.18 106.658 96.8551 102.378 91.707C102.059 91.326 101.891 90.8475 101.891 90.3513V81.712C101.891 80.5336 102.839 79.5854 104.018 79.5854H122.537C130.538 79.5854 137.042 86.0892 137.042 94.0905C137.042 99.8323 133.648 105.042 128.394 107.364L104.877 117.74C104.603 117.864 104.31 117.926 104.018 117.926ZM106.144 89.5981C112.232 97.3158 111.833 104.36 110.389 108.95C110.158 109.677 109.901 110.359 109.627 110.997L126.675 103.474C130.387 101.835 132.789 98.1487 132.789 94.0905C132.789 88.4373 128.19 83.8386 122.537 83.8386H106.144V89.5981Z" fill="black"/>
</svg>
