<svg width="142" height="89" viewBox="0 0 142 89" fill="none" xmlns="http://www.w3.org/2000/svg">
<path d="M86.6771 25.9168C86.6771 34.5742 79.6589 41.5924 71.0015 41.5924C62.3441 41.5924 55.3259 34.5742 55.3259 25.9168C55.3259 17.2594 62.3441 10.2412 71.0015 10.2412C79.6589 10.2412 86.6771 17.2594 86.6771 25.9168Z" stroke="black" stroke-width="3"/>
<path d="M123.952 17.9871C123.952 26.6445 116.934 33.6627 108.276 33.6627C99.6188 33.6627 92.6006 26.6445 92.6006 17.9871C92.6006 9.32973 99.6188 2.31152 108.276 2.31152C116.934 2.31152 123.952 9.32973 123.952 17.9871Z" stroke="black" stroke-width="3"/>
<path d="M106.798 73.9481C104.124 62.9034 98.0753 53.5637 90.0165 47.7941C95.076 42.8511 101.421 39.9512 108.276 39.9512C123.63 39.9512 136.64 54.6817 137.741 73.9481H106.798Z" stroke="black" stroke-width="3"/>
<path d="M49.4009 17.9871C49.4009 26.6445 42.3827 33.6627 33.7253 33.6627C25.0679 33.6627 18.0497 26.6445 18.0497 17.9871C18.0497 9.32973 25.0679 2.31152 33.7253 2.31152C42.3827 2.31152 49.4009 9.32973 49.4009 17.9871Z" stroke="black" stroke-width="3"/>
<path d="M33.7269 39.9512C40.5787 39.9512 46.925 42.8522 51.9848 47.7942C43.926 53.5634 37.8738 62.9017 35.2031 73.9481H4.26031C5.36267 54.6817 18.3732 39.9512 33.7269 39.9512Z" stroke="black" stroke-width="3"/>
<path d="M42.7159 73.9483C46.4186 58.6767 57.833 47.8809 71 47.8809C84.1637 47.8809 95.5767 58.6765 99.2822 73.9483H42.7159Z" stroke="black" stroke-width="3"/>
<path d="M137 79H5C2.23858 79 0 81.2386 0 84C0 86.7614 2.23858 89 5 89H137C139.761 89 142 86.7614 142 84C142 81.2386 139.761 79 137 79Z" fill="#FFC000"/>
</svg>
