<svg width="74" height="118" viewBox="0 0 74 118" fill="none" xmlns="http://www.w3.org/2000/svg">
<path d="M37 18.2725C27.4582 18.2725 19.6618 26.0688 19.6618 35.6106C19.6618 45.1525 27.4582 52.9488 37 52.9488C46.5418 52.9488 54.3382 45.1525 54.3382 35.6106C54.3382 26.0688 46.5418 18.2725 37 18.2725Z" fill="#FFC000"/>
<path d="M71.3286 33.9988L71.3335 34.0049L71.3386 34.0109C71.6616 34.3985 71.8763 34.9893 71.9089 35.6943C71.9389 36.346 71.8066 36.9815 71.5768 37.4625L68.0804 41.7485C68.0785 41.7507 68.0767 41.7529 68.0749 41.7551C67.3429 42.6359 66.7444 43.8318 66.3425 45.0214C65.9422 46.2064 65.6857 47.5365 65.7564 48.7197L65.9885 54.4063L65.9892 54.4225L65.9902 54.4387C66.0608 55.5689 65.1484 56.7987 64.0753 57.0849L64.0697 57.0864L58.4976 58.5955C57.3124 58.8949 56.1192 59.5638 55.114 60.3138C54.0977 61.072 53.1585 61.9989 52.5231 62.9168L52.5132 62.9311L52.5036 62.9456L49.3725 67.7002C48.6689 68.7028 47.1803 69.1828 46.168 68.7778L46.1575 68.7737L40.8153 66.6833C40.8133 66.6826 40.8114 66.6818 40.8095 66.681C39.7109 66.2428 38.3774 66.0524 37.1164 66.0524C35.8552 66.0524 34.5216 66.2428 33.423 66.6811C33.4212 66.6819 33.4193 66.6826 33.4174 66.6833L28.0752 68.7737L28.0647 68.7779C27.0524 69.1828 25.5639 68.7028 24.8602 67.7003L21.7381 62.9595C21.7365 62.957 21.735 62.9546 21.7334 62.9521C21.0767 61.9335 20.0807 60.9926 19.0536 60.2544C18.0253 59.5153 16.8435 58.8916 15.7454 58.5983C15.7446 58.5981 15.7437 58.5978 15.7428 58.5976L10.163 57.0864L10.1574 57.0849C9.08426 56.7987 8.17186 55.5689 8.24246 54.4387L8.24446 54.407L8.24506 54.3751L8.36146 48.557L8.36176 48.542V48.527C8.36176 47.4041 8.12136 46.111 7.73586 44.9224C7.35456 43.7467 6.78687 42.5358 6.04127 41.6385L2.43866 37.2224L2.43366 37.2163L2.42866 37.2103C2.11426 36.8331 1.90356 36.2348 1.90356 35.5524C1.90356 34.8701 2.11426 34.2717 2.42866 33.8945L2.43366 33.8885L2.43856 33.8824L6.04127 29.4662C6.77337 28.5855 7.37186 27.3895 7.77376 26.1998C8.17406 25.0148 8.43057 23.6848 8.35987 22.5016L8.12776 16.8149L8.12716 16.7987L8.12617 16.7825C8.05547 15.6523 8.96796 14.4225 10.041 14.1363L10.0467 14.1348L15.619 12.6256C16.8041 12.3262 17.9972 11.6573 19.0024 10.9074C20.0187 10.1493 20.9578 9.2223 21.5933 8.3044L21.6032 8.2901L21.6127 8.2756L24.7438 3.52096C25.4475 2.51841 26.936 2.03839 27.9484 2.44332L27.9588 2.44747L33.3011 4.53787C33.3029 4.53861 33.3048 4.53935 33.3066 4.54008C34.4052 4.97838 35.7389 5.1688 37 5.1688C38.2599 5.1688 39.5921 4.97875 40.6901 4.54136L45.8024 2.56617L45.8107 2.56298L45.8189 2.55969C46.8312 2.15476 48.3197 2.63477 49.0234 3.63729L52.1503 8.3856C52.807 9.4041 53.803 10.345 54.83 11.0832C55.8582 11.8222 57.0396 12.4457 58.1376 12.7391C58.1386 12.7394 58.1397 12.7397 58.1408 12.74L63.7206 14.2512L63.7262 14.2527C64.7993 14.5388 65.7117 15.7687 65.6411 16.8989L65.6401 16.915L65.6394 16.9313L65.4067 22.6331L65.4054 22.6636V22.6942C65.4054 23.8171 65.6458 25.1102 66.0313 26.2988C66.4126 27.4744 66.9802 28.6852 67.7258 29.5825C67.7276 29.5847 67.7295 29.5869 67.7313 29.5891L71.3286 33.9988ZM12.6927 35.6106C12.6927 49.0063 23.6043 59.9179 37 59.9179C50.3957 59.9179 61.3073 49.0063 61.3073 35.6106C61.3073 22.2149 50.3957 11.3033 37 11.3033C23.6043 11.3033 12.6927 22.2149 12.6927 35.6106Z" stroke="black" stroke-width="3"/>
<path d="M62.6573 107.196C62.6572 107.196 62.6578 107.195 62.6591 107.193M62.7458 107.126C62.748 107.125 62.7491 107.125 62.7492 107.125M53.0642 102.652L53.5043 72.7254L54.6953 70.9184L62.6468 106.329C62.7298 106.728 62.7137 106.981 62.6848 107.111C62.6833 107.118 62.6817 107.125 62.6802 107.131C62.6742 107.13 62.6677 107.13 62.6608 107.13C62.5247 107.125 62.264 107.075 61.8745 106.88L61.8662 106.876L54.3108 103.157C54.3093 103.156 54.3078 103.155 54.3062 103.154C53.9221 102.962 53.5063 102.785 53.0642 102.652Z" stroke="black" stroke-width="3"/>
<path d="M39.9577 73.3184L45.0246 75.4047L44.3947 114.147L36.5667 107.653C34.7514 106.12 32.3038 105.325 29.9018 105.325C28.1869 105.325 26.3966 105.716 24.9511 106.58L16.0342 111.752L21.7598 74.4364C23.4431 75.8513 25.9346 76.4125 28.0738 75.6575L28.0981 75.6489L28.1222 75.6395L34.0454 73.3166C34.7526 73.0536 35.8056 72.8921 36.9564 72.8921C38.0911 72.8921 39.1767 73.0491 39.9577 73.3184Z" stroke="black" stroke-width="3"/>
</svg>
