<svg width="96" height="110" viewBox="0 0 96 110" fill="none" xmlns="http://www.w3.org/2000/svg">
<path d="M18.798 37.2314H28.3333L27.1415 50.3778C24.3604 50.577 18.798 52.1705 15.8182 46.1949C12.8384 40.2192 16.8115 38.6258 18.798 37.2314Z" fill="#FFC000"/>
<path d="M76.8683 50.9756H67.6667L68.8168 35.8304C71.5007 35.6009 76.8683 33.7651 79.7439 40.6493C82.6194 47.5335 78.7854 49.3693 76.8683 50.9756Z" fill="#FFC000"/>
<path d="M64.9312 66.8099L64.7703 63.9055C65.1994 63.371 65.6106 62.8186 65.986 62.2484H71.6178C74.4606 62.2484 76.7669 59.9499 76.7669 57.1168V52.9295C76.7669 52.8048 76.7312 52.6979 76.6954 52.591C79.8063 52.0208 82.1663 49.3124 82.1663 46.0695V43.4324C82.1663 43.4146 82.1842 43.3968 82.1842 43.379V34.1492C82.1842 15.3332 66.8263 0.0273438 47.9463 0.0273438C29.0663 0.0273438 13.7084 15.3332 13.7084 34.1492V41.2764V43.379V46.0517C13.7084 49.7223 16.6942 52.6979 20.3772 52.6979H26.4203C26.8672 56.8852 28.53 60.8052 31.2118 64.0659L31.0688 66.7921C13.9409 68.4314 0.710571 82.7572 0.710571 100.059V103.818C0.710571 106.972 3.28507 109.556 6.46747 109.556H47.9463C47.9642 109.556 47.9821 109.574 48 109.574C48.0178 109.574 48.0357 109.556 48.0536 109.556H89.532C92.715 109.556 95.289 106.99 95.289 103.818V100.059C95.289 82.7572 82.0591 68.4314 64.9312 66.8099ZM48 85.8219L39.15 70.0884C41.8854 71.3001 44.8533 71.9415 47.9284 71.9415C51.1287 71.9415 54.1503 71.2288 56.8857 69.9815L48 85.8219ZM34.0903 67.2732L39.2751 76.503L33.2857 82.4364L34.0903 67.2732ZM61.9097 67.2732L62.7142 82.4364L56.7248 76.503L61.9097 67.2732ZM73.7275 57.1346C73.7275 58.2928 72.78 59.2193 71.6357 59.2193H67.6845C68.5963 57.1881 69.2221 55.0143 69.4724 52.7157H73.7812C73.7633 52.787 73.7454 52.8583 73.7454 52.9295V57.1346H73.7275ZM55.1694 24.6164C54.6866 24.5986 54.2218 24.8124 53.9178 25.1866L50.7175 29.2313C50.6281 29.3561 50.5209 29.463 50.4136 29.5699C49.0369 31.1023 47.1418 32.1001 45.1215 32.3317C44.8175 32.3673 44.4957 32.3852 44.1739 32.3852H27.7969C26.9566 32.3852 26.2772 33.0623 26.2772 33.8997V34.6303H24.9363C23.4345 26.7903 28.0115 20.4648 32.2488 16.4735C37.9521 11.0924 45.8903 9.1146 52.9524 11.3063C61.3018 13.9255 63.7333 20.643 63.8406 20.9281C64.0194 21.4448 64.4484 21.819 64.9848 21.9259C66.3615 22.1932 67.5951 22.9415 68.5069 24.0463C69.4009 25.1332 69.8836 26.4517 69.8836 27.895V33.3117C69.8836 33.7393 69.8657 34.1848 69.83 34.6303H69.6154V31.815C69.6154 31.227 69.2757 30.7103 68.7572 30.4608C68.5963 30.3717 68.3997 30.3183 68.203 30.3004C66.0397 30.1223 60.4436 29.1244 57.4757 26.523C57.0466 26.1488 56.6891 25.739 56.3851 25.3113C56.1169 24.8837 55.67 24.6343 55.1694 24.6164ZM79.1269 46.0695C79.1269 48.0652 77.5 49.6866 75.4975 49.6866H69.5975V37.695H75.4975C77.5 37.695 79.1269 39.3164 79.1269 41.3121V46.0695ZM47.9463 3.07425C65.1457 3.07425 79.1448 17.0259 79.1448 34.167V35.735C78.09 35.0579 76.8563 34.6481 75.5154 34.6481H72.8872C72.923 34.2026 72.9409 33.7572 72.9409 33.3117V27.895C72.9409 25.7746 72.2078 23.7077 70.8669 22.1219C69.7048 20.6964 68.1315 19.663 66.3972 19.1463C65.4139 16.9724 62.0348 10.9677 53.8642 8.4019C45.7472 5.88953 36.6648 8.1346 30.1569 14.2641C23.5239 20.5183 20.6991 27.5208 21.8612 34.6303H20.3772C19.0363 34.6303 17.8027 35.0401 16.7478 35.7172V34.1492C16.7478 17.0259 30.7469 3.07425 47.9463 3.07425ZM16.7478 46.0695V43.3968V41.2943C16.7478 39.2986 18.3748 37.6772 20.3772 37.6772H26.2772V49.6688H20.3772C18.3748 49.6866 16.7478 48.0652 16.7478 46.0695ZM29.3166 36.1804C29.3166 36.1626 29.3166 36.1626 29.3166 36.1804V35.4321H44.1739C45.0678 35.4321 45.9439 35.3252 46.7842 35.1292C48.9654 34.6124 50.95 33.4721 52.5054 31.7972C52.7021 31.5833 52.9166 31.3695 53.1133 31.1201L55.1694 28.5186C55.2051 28.5364 55.223 28.5721 55.2588 28.5899C58.5663 31.6546 64.0015 32.7772 66.5581 33.1513V36.1626V50.3637C66.5581 53.571 65.7357 56.5823 64.2875 59.2193H56.4566C55.7772 56.8139 53.596 55.0321 50.9678 55.0321C47.8033 55.0321 45.2466 57.5979 45.2466 60.7339C45.2466 63.8877 47.8212 66.4357 50.9678 66.4357C53.596 66.4357 55.7951 64.6539 56.4566 62.2484H62.1957C58.7809 66.311 53.6497 68.9124 47.9106 68.9124C42.9403 68.9124 38.256 66.9881 34.7518 63.4779C31.2475 59.9855 29.2988 55.3172 29.2988 50.3637V36.1804H29.3166ZM53.6497 60.7339C53.6497 62.2128 52.4518 63.4066 50.9678 63.4066C49.4839 63.4066 48.286 62.2128 48.286 60.7339C48.286 59.255 49.4839 58.0612 50.9678 58.0612C52.4518 58.0612 53.6497 59.2728 53.6497 60.7339ZM3.74997 103.818V100.059C3.74997 84.4855 15.55 71.5674 30.89 69.8924L30.1569 83.8441C30.1033 84.8597 30.6754 85.7863 31.6051 86.2139C31.9269 86.3564 32.2666 86.4277 32.6063 86.4277C33.2321 86.4277 33.8578 86.1783 34.3227 85.715L40.8127 79.2826L46.4624 89.3321V106.527H6.44967C4.96567 106.509 3.74997 105.297 3.74997 103.818ZM92.25 103.818C92.25 105.315 91.034 106.527 89.532 106.527H49.5197V89.3321L55.1872 79.2648L61.6594 85.6972C62.1242 86.1604 62.75 86.4099 63.3757 86.4099C63.7154 86.4099 64.0551 86.3386 64.3769 86.1961C65.3066 85.7863 65.8788 84.8597 65.8251 83.8263L65.0921 69.8746C80.45 71.5495 92.25 84.4855 92.25 100.041V103.818Z" fill="black"/>
<path d="M53.9715 88.7793C53.1312 88.7793 52.4518 89.4564 52.4518 90.2938V92.3608C52.4518 93.1982 53.1312 93.8753 53.9715 93.8753C54.8118 93.8753 55.4912 93.1982 55.4912 92.3608V90.2938C55.4912 89.4564 54.8118 88.7793 53.9715 88.7793Z" fill="black"/>
<path d="M53.9715 97.652C53.1312 97.652 52.4518 98.329 52.4518 99.167V101.234C52.4518 102.071 53.1312 102.748 53.9715 102.748C54.8118 102.748 55.4912 102.071 55.4912 101.234V99.167C55.4912 98.329 54.8118 97.652 53.9715 97.652Z" fill="black"/>
</svg>
