<svg width="86" height="108" viewBox="0 0 86 108" fill="none" xmlns="http://www.w3.org/2000/svg">
<path d="M84 82C84 88.3077 79.7309 94.2746 72.2803 98.745C64.8595 103.197 54.5109 106 43 106C31.4891 106 21.1405 103.197 13.7197 98.745C6.26905 94.2746 2 88.3077 2 82C2 75.6923 6.26905 69.7254 13.7197 65.255C21.1405 60.8025 31.4891 58 43 58C54.5109 58 64.8595 60.8025 72.2803 65.255C79.7309 69.7254 84 75.6923 84 82Z" stroke="black" stroke-width="3"/>
<path d="M34.3326 69.173C23.8189 71.0287 16.4495 76.0549 16.4495 82.1356C16.4495 89.8397 28.2649 95.8766 43.3514 95.8766C58.4379 95.8766 70.2532 89.8414 70.2532 82.1356C70.2532 76.0565 62.8839 71.0304 52.3701 69.173C60.6706 56.6296 71.7011 38.1209 71.7011 28.3498C71.7011 12.688 59.0131 0 43.3497 0C27.6864 0 15 12.688 15 28.3498C15 38.1193 26.0321 56.628 34.3326 69.173ZM67.0032 82.1356C67.0032 87.2024 57.4986 92.6266 43.3514 92.6266C29.2041 92.6266 19.6995 87.2024 19.6995 82.1356C19.6995 77.9659 26.1459 73.5605 36.3119 72.1289C40.3516 78.0991 43.3514 82.134 43.3514 82.134C43.3514 82.134 46.3495 78.0975 50.3909 72.1289C60.5569 73.5605 67.0032 77.9659 67.0032 82.1356ZM43.3514 14.2886C51.1124 14.2886 57.4125 20.5904 57.4125 28.3514C57.4125 36.1124 51.1107 42.4141 43.3514 42.4141C35.592 42.4141 29.2902 36.127 29.2902 28.3514C29.2902 20.5758 35.592 14.2886 43.3514 14.2886Z" fill="#FFC000"/>
</svg>
