<svg width="120" height="106" viewBox="0 0 120 106" fill="none" xmlns="http://www.w3.org/2000/svg">
<circle cx="81" cy="93" r="12" fill="#FFC000"/>
<circle cx="44" cy="93" r="12" fill="#FFC000"/>
<path d="M43.5 96.2812C45.2086 96.2812 46.5938 94.8961 46.5938 93.1875C46.5938 91.4789 45.2086 90.0938 43.5 90.0938C41.7914 90.0938 40.4062 91.4789 40.4062 93.1875C40.4062 94.8961 41.7914 96.2812 43.5 96.2812Z" fill="black"/>
<path d="M80.625 96.2812C82.3336 96.2812 83.7188 94.8961 83.7188 93.1875C83.7188 91.4789 82.3336 90.0938 80.625 90.0938C78.9164 90.0938 77.5312 91.4789 77.5312 93.1875C77.5312 94.8961 78.9164 96.2812 80.625 96.2812Z" fill="black"/>
<path d="M2.25 12.75H22.875V72.9956C20.2434 73.7445 17.9711 75.4192 16.4769 77.7113C14.9827 80.0033 14.3672 82.7582 14.7439 85.4682C15.1207 88.1782 16.4642 90.6608 18.527 92.4584C20.5897 94.2559 23.2327 95.2474 25.9687 95.25H31.3106C31.8131 98.1181 33.3107 100.717 35.5402 102.59C37.7697 104.463 40.5882 105.49 43.5 105.49C46.4118 105.49 49.2303 104.463 51.4598 102.59C53.6893 100.717 55.1869 98.1181 55.6894 95.25H68.4356C68.9381 98.1181 70.4357 100.717 72.6652 102.59C74.8947 104.463 77.7132 105.49 80.625 105.49C83.5368 105.49 86.3553 104.463 88.5847 102.59C90.8142 100.717 92.3119 98.1181 92.8144 95.25H101.25V91.125H92.8144C92.3119 88.2569 90.8142 85.6579 88.5847 83.785C86.3553 81.9121 83.5368 80.8854 80.625 80.8854C77.7132 80.8854 74.8947 81.9121 72.6652 83.785C70.4357 85.6579 68.9381 88.2569 68.4356 91.125H55.6894C55.1869 88.2569 53.6893 85.6579 51.4598 83.785C49.2303 81.9121 46.4118 80.8854 43.5 80.8854C40.5882 80.8854 37.7697 81.9121 35.5402 83.785C33.3107 85.6579 31.8131 88.2569 31.3106 91.125H25.9687C24.0542 91.125 22.2181 90.3645 20.8643 89.0107C19.5105 87.6569 18.75 85.8208 18.75 83.9062C18.75 81.9917 19.5105 80.1556 20.8643 78.8018C22.2181 77.448 24.0542 76.6875 25.9687 76.6875H105.375C105.852 76.6992 106.318 76.5452 106.694 76.2519C107.07 75.9586 107.333 75.544 107.437 75.0788L119.812 19.3913C119.882 19.0852 119.88 18.7675 119.808 18.4622C119.736 18.1568 119.595 17.872 119.396 17.6294C119.197 17.3868 118.945 17.1927 118.66 17.062C118.375 16.9312 118.064 16.8673 117.75 16.875H27V2.4375C27 1.89049 26.7827 1.36589 26.3959 0.979093C26.0091 0.592299 25.4845 0.375 24.9375 0.375H2.25C1.70299 0.375 1.17839 0.592299 0.791592 0.979093C0.404798 1.36589 0.1875 1.89049 0.1875 2.4375V10.6875C0.1875 11.2345 0.404798 11.7591 0.791592 12.1459C1.17839 12.5327 1.70299 12.75 2.25 12.75ZM80.625 84.9375C82.2567 84.9375 83.8517 85.4214 85.2085 86.3279C86.5652 87.2344 87.6226 88.5229 88.247 90.0304C88.8714 91.5378 89.0348 93.1967 88.7165 94.797C88.3981 96.3973 87.6124 97.8673 86.4586 99.0211C85.3048 100.175 83.8348 100.961 82.2345 101.279C80.6341 101.597 78.9753 101.434 77.4679 100.81C75.9604 100.185 74.6719 99.1277 73.7654 97.771C72.8588 96.4143 72.375 94.8192 72.375 93.1875C72.375 90.9995 73.2442 88.901 74.7914 87.3539C76.3385 85.8067 78.437 84.9375 80.625 84.9375ZM43.5 84.9375C45.1317 84.9375 46.7267 85.4214 48.0835 86.3279C49.4402 87.2344 50.4976 88.5229 51.122 90.0304C51.7464 91.5378 51.9098 93.1967 51.5915 94.797C51.2731 96.3973 50.4874 97.8673 49.3336 99.0211C48.1798 100.175 46.7098 100.961 45.1095 101.279C43.5091 101.597 41.8503 101.434 40.3429 100.81C38.8354 100.185 37.5469 99.1277 36.6404 97.771C35.7339 96.4143 35.25 94.8192 35.25 93.1875C35.25 90.9995 36.1192 88.901 37.6664 87.3539C39.2135 85.8067 41.312 84.9375 43.5 84.9375ZM80.8519 54H56.2669C56.535 49.875 56.8031 45.1725 57.0712 39.5625H82.44L80.8519 54ZM86.5856 39.5625H111.047L107.85 54H84.9975L86.5856 39.5625ZM80.3981 58.125L78.81 72.5625H54.3487C55.1548 67.7833 55.6987 62.9636 55.9781 58.125H80.3981ZM27 39.5625H52.9256C52.6369 45.2756 52.3687 50.04 52.1006 54H27V39.5625ZM57.2569 35.4375C57.4631 31.1063 57.6625 26.2937 57.855 21H84.5025L82.9144 35.4375H57.2569ZM53.1319 35.4375H27V21H53.8125C53.5512 26.3212 53.3244 31.1337 53.1319 35.4375ZM27 58.125H51.75C51.4956 62.9619 50.9792 67.7815 50.2031 72.5625H27V58.125ZM103.725 72.5625H82.935L84.5231 58.125H106.922L103.725 72.5625ZM111.975 35.4375H87.06L88.6481 21H115.172L111.975 35.4375ZM4.3125 4.5H22.875V8.625H4.3125V4.5Z" fill="black"/>
</svg>
