<svg width="91" height="73" viewBox="0 0 91 73" fill="none" xmlns="http://www.w3.org/2000/svg">
<path d="M90.702 35.6276C90.702 31.3793 87.1694 27.6138 81.1544 24.5241L81.2499 26.9379C86.1192 29.5448 88.888 32.6345 88.888 35.6276C88.888 38.7172 86.1192 41.8069 81.1544 44.4138V7.24137V7.14482V7.04827C81.1544 7.04827 81.1544 6.95172 81.059 6.95172C81.059 6.85517 80.9635 6.75862 80.868 6.66207C80.868 6.56551 80.7725 6.56551 80.7725 6.56551L80.6771 6.46896C80.5816 6.46896 80.4861 6.46896 80.4861 6.37241L80.3906 6.27586L36.1853 0C35.9944 0 35.8034 -5.53912e-07 35.708 0.0965511C26.1604 4.53793 11.5526 11.1034 10.5023 11.4896H10.4069C10.3114 11.4896 10.1204 11.5862 10.025 11.5862H9.92949C9.83401 11.6828 9.73853 11.8759 9.64306 11.9724C9.64306 12.069 9.64306 12.069 9.64306 12.1655V12.2621V44.1241C4.77379 41.5172 1.90952 38.5241 1.90952 35.3379C1.90952 32.3448 4.58284 29.2552 9.45211 26.6483L9.54758 24.2345C3.53261 27.2276 0 31.0896 0 35.3379C0 39.5862 3.43713 43.3517 9.54758 46.4414V62.2758C9.54758 62.7586 9.83401 63.1448 10.3114 63.1448L58.3357 72.3172C58.4312 72.3172 58.4312 72.3172 58.5267 72.3172C58.7176 72.3172 58.9086 72.2206 59.0041 72.1241L80.7725 56.3862C81.059 56.1931 81.1544 55.9034 81.1544 55.6138V46.3448C87.3604 43.6414 90.702 39.7793 90.702 35.6276ZM36.1853 2.02758L77.4309 7.82068L60.0543 17.669L58.3357 18.6345L14.0349 12.069C17.1856 10.6207 23.5825 7.82068 36.1853 2.02758ZM11.3616 47.6C14.5123 48.9517 18.3314 50.2069 22.6278 51.1724L16.1354 55.9034L17.0902 57.7379L26.4468 50.7862L19.859 40.2621L18.3314 41.5172L23.0097 48.9517C18.5223 47.9862 14.5123 46.6345 11.2661 45.1862V13.5172L31.7934 16.5103L57.4764 20.2759V70.5793L11.2661 61.6965V47.6H11.3616ZM79.3404 55.5172L59.386 70V20.0827L79.3404 8.7862V45.1862C77.5264 46.0551 75.4259 46.8276 73.1345 47.5034C72.6571 47.6965 72.3707 48.2758 72.4661 48.8551C72.5616 49.4345 73.1345 49.8207 73.6119 49.6276C75.7123 48.9517 77.6218 48.2758 79.3404 47.5034V55.5172Z" fill="black"/>
</svg>
