<svg width="660" height="587" viewBox="0 0 660 587" fill="none" xmlns="http://www.w3.org/2000/svg">
<g clip-path="url(#clip0_982_230)">
<path d="M439.318 311.643L486.826 178.579L544.802 347.378L603.324 445.187L602.6 343.539L544.802 347.378L505.043 465.294L420.857 364.766L411.771 417.38L375.476 478.993L347.434 408.711L305.459 385.624L275.799 422.49L204.592 424.079L143.95 541.035L145.006 469.524L204.592 424.079L231.069 547.005L275.799 422.49L242.999 378.635L305.459 385.624L285.041 437.558L347.434 408.711L266.979 494.181L204.592 424.079L136.016 406.911L81.1426 467.004L0.273315 518.068" stroke="#FAFF00" stroke-width="0.75" stroke-miterlimit="10" stroke-linecap="round" stroke-linejoin="round"/>
<path d="M401.923 249.83L371.406 364.576L347.434 408.711L439.318 311.643L347.789 296.035L411.771 417.38L420.488 394.193L505.043 465.294L411.771 417.38L347.434 408.711L420.857 364.766L439.318 311.643L401.923 249.83ZM401.923 249.83L347.789 296.035L347.434 408.711L305.459 385.624L257.176 410.501L242.999 378.635L204.6 424.079L136.016 406.911L67.6681 559.363L145.006 469.524L275.799 422.489" stroke="#FAFF00" stroke-width="0.75" stroke-miterlimit="10" stroke-linecap="round" stroke-linejoin="round"/>
<path d="M544.802 347.378L575.267 529.767L505.043 465.294L460.645 503.27L375.476 478.993L285.041 437.558L275.799 422.489L266.979 494.181L317.382 586.63L375.476 478.993L417.496 511.359L347.434 408.711L420.488 394.193L544.802 347.378ZM544.802 347.378L517.358 328.161L439.318 311.643L371.406 364.576L305.459 385.624" stroke="#FAFF00" stroke-width="0.75" stroke-miterlimit="10" stroke-linecap="round" stroke-linejoin="round"/>
<path d="M460.645 503.27L477.769 586.63L505.043 465.294L616.4 503.27L544.802 347.378" stroke="#FAFF00" stroke-width="0.75" stroke-miterlimit="10" stroke-linecap="round" stroke-linejoin="round"/>
<path d="M541.16 25.9771L631.803 85.07L540.052 125.765L544.802 347.379L659.719 251.82L540.052 125.765L439.318 311.643" stroke="#FAFF00" stroke-width="0.75" stroke-miterlimit="10" stroke-linecap="round" stroke-linejoin="round"/>
<path d="M541.16 25.9768L659.719 251.82L517.358 328.161L540.052 125.765L626.026 0.379883L541.16 25.9768ZM541.16 25.9768L540.052 125.765L486.826 178.579L517.358 328.161L420.488 394.193L420.857 364.766L347.789 296.035L420.488 394.193L460.645 503.27L411.771 417.38" stroke="#FAFF00" stroke-width="0.75" stroke-miterlimit="10" stroke-linecap="round" stroke-linejoin="round"/>
<path d="M347.434 408.711L317.382 586.63" stroke="#FAFF00" stroke-width="0.75" stroke-miterlimit="10" stroke-linecap="round" stroke-linejoin="round"/>
<path d="M257.176 410.501L204.6 424.079L150.694 564.583" stroke="#FAFF00" stroke-width="0.75" stroke-miterlimit="10" stroke-linecap="round" stroke-linejoin="round"/>
<path d="M67.6681 559.363L81.1426 467.004L30.1182 564.582L136.016 406.911L145.006 469.524L96.5452 406.911L26.5132 534.286" stroke="#FAFF00" stroke-width="0.75" stroke-miterlimit="10" stroke-linecap="round" stroke-linejoin="round"/>
<path d="M81.1426 467.004L96.5452 406.911L143.95 541.035" stroke="#FAFF00" stroke-width="0.75" stroke-miterlimit="10" stroke-linecap="round" stroke-linejoin="round"/>
</g>
<defs>
<clipPath id="clip0_982_230">
<rect width="660" height="587" fill="white"/>
</clipPath>
</defs>
</svg>
