<svg width="118" height="72" viewBox="0 0 118 72" fill="none" xmlns="http://www.w3.org/2000/svg">
<path fill-rule="evenodd" clip-rule="evenodd" d="M23.5932 44.7809L23.3898 44.3687C22.3724 42.3077 21.762 40.0406 21.5585 38.3919C21.1515 36.3309 21.355 33.6516 21.762 31.5906C21.9654 30.7662 22.1689 30.1479 22.3724 29.3235H22.1689V28.9113H21.9654C15.8612 31.3845 8.94304 24.7894 11.1813 18.4003C12.6056 14.2784 17.082 12.0113 18.9133 8.09544C19.7272 6.44666 19.7272 4.38568 18.5064 2.94299C17.6925 2.3247 16.8786 1.9125 15.8612 1.9125C12.8091 1.9125 12.8091 4.79787 11.5882 6.85885C10.9778 7.68324 9.96042 8.50764 8.94304 8.71373C6.70482 9.12593 5.68744 6.85885 4.26312 5.82836C3.65269 5.41617 2.63532 5.41617 2.22837 4.79787C1.82142 3.97348 1.41447 3.14909 1.00752 2.3247C0.804045 2.3247 0.60057 2.1186 0.397095 1.9125V1.29421C1.82142 1.5003 2.22837 2.53079 3.24574 2.73689C4.26312 2.94299 4.87354 2.1186 5.89092 2.1186C6.90829 2.1186 7.72219 2.94299 8.73957 3.14909C9.75694 3.14909 11.9952 1.5003 13.0125 1.08811C13.8264 0.675911 14.6403 0.469813 15.4542 0.0576172C17.489 0.0576172 20.1342 1.08811 20.7446 2.94299C22.9828 9.53813 16.0647 13.0418 14.0299 17.9881C11.9952 22.9345 17.082 25.8199 21.1515 25.8199C21.9654 25.4077 22.7793 24.9955 23.7967 24.7894C27.4593 22.5223 31.9357 19.4308 36.6156 19.4308C38.4469 19.4308 39.8712 20.2552 41.2956 20.6674C42.5164 20.8735 43.7373 20.6674 45.1616 20.8735C50.6554 22.3162 57.1666 22.3162 61.6431 16.9577C62.457 15.9272 62.2535 14.4845 62.457 13.2479C62.8639 9.95032 65.7126 7.27105 68.7647 6.65275C76.9037 5.00397 81.9906 13.454 87.2809 17.9881C88.2983 18.8125 89.1122 20.2552 90.333 20.4613C91.5539 20.6674 92.1643 21.6979 92.7747 22.3162C93.5886 23.5528 95.8269 24.7894 97.0477 26.026C98.2686 27.2626 102.135 33.0333 103.355 33.0333V32.8272C104.169 32.2089 104.373 31.1784 105.187 30.354C106.611 28.7052 112.308 23.965 114.343 23.965C114.343 25.6138 112.308 26.8504 111.494 27.8809C110.681 29.1174 110.07 30.354 109.46 31.5906C108.849 32.6211 109.256 32.8272 109.663 32.6211C110.681 31.5906 116.174 27.4687 117.395 27.4687C117.192 28.7052 116.378 29.3235 115.157 30.354C114.343 31.3845 113.326 32.6211 112.512 33.6516C111.698 34.8882 110.884 36.1248 110.07 37.3614C109.46 37.9797 109.053 38.804 108.442 39.4223C107.425 41.4833 106.611 43.5443 105.187 45.3992C104.373 46.2236 103.355 46.8419 102.542 47.6663C101.321 48.9029 99.8964 50.1394 98.6755 51.376C97.8616 51.9943 97.0477 52.6126 96.2338 53.2309C95.013 54.2614 94.1991 55.9102 92.7747 56.1163C91.9608 56.1163 90.9435 55.7041 90.333 55.2919C86.874 53.2309 89.5191 49.9333 87.8913 48.2846C87.2809 48.0785 86.467 49.5211 85.2462 47.8724C84.0253 48.4907 83.2114 49.1089 80.9732 48.2846C79.3454 49.315 84.6357 55.7041 84.6357 57.3529C84.6357 57.559 84.6357 57.559 84.4323 57.7651C84.2288 58.5895 83.8218 59.0017 82.8045 60.0321C81.9906 61.6809 81.1767 63.1236 80.3628 64.5663C79.9558 65.3907 79.9558 66.2151 78.735 66.8334C78.328 67.4517 78.9384 71.1614 78.1245 71.1614H75.2759L75.0724 68.6883C75.0724 67.6578 76.0898 66.8334 76.0898 66.4212C76.0898 65.8029 75.4794 65.3907 75.8863 64.9785C77.3106 63.948 79.7523 59.826 79.9558 57.9712C79.7523 57.3529 79.1419 57.1468 78.735 56.7346C78.1245 56.3224 77.3106 55.7041 76.7002 55.7041C76.2933 56.3224 76.0898 58.3834 75.4794 59.0017C73.6481 60.6504 70.189 60.8565 68.1543 61.4748C67.7473 61.887 67.3404 62.5053 66.1195 62.5053C64.8987 63.3297 64.2882 64.7724 62.6604 64.9785C62.6604 64.9785 61.4396 61.887 61.0326 61.6809C61.6431 61.0626 62.05 61.6809 62.457 61.0626C62.8639 60.6504 64.4917 60.4443 64.4917 60.2382H64.6952C64.6952 59.826 64.4917 58.7956 64.8987 58.7956C66.1195 57.9712 71.0029 59.0017 71.2064 57.1468C71.4099 56.1163 69.9855 53.8492 69.3751 53.0248C64.0848 46.8419 64.6952 51.1699 56.5562 51.376C56.1492 51.376 56.3527 52.4065 56.3527 52.8187H56.1492V53.0248C53.7075 52.8187 52.0797 51.376 49.8415 50.7577C47.8068 50.1394 45.1616 49.109 43.1268 49.9333C42.5164 50.1394 41.906 50.3455 41.2956 50.3455C41.0921 51.376 40.6851 52.4065 40.0747 53.437C38.6504 55.498 37.2261 56.3224 36.0052 58.5895C36.0052 60.2382 35.1913 61.0626 34.3774 63.1236C33.5635 64.7724 33.36 66.6273 32.7496 68.07C32.5461 68.2761 32.9531 68.6883 32.9531 69.1005C33.36 70.337 33.1566 70.5431 32.9531 71.1614C31.5288 71.1614 31.3253 70.9553 29.2905 71.3675C29.494 70.337 28.8836 69.1005 30.1044 66.8334C30.1044 66.8334 30.1044 66.6273 30.1044 66.4212C30.1044 66.2151 29.901 65.8029 29.901 65.3907C29.6975 64.7724 29.494 64.1541 29.2905 63.948C32.5461 60.0321 31.5288 55.9102 28.6801 52.6126L28.2732 52.8187C27.8662 53.0248 27.6627 53.2309 27.2558 53.437C27.0523 53.6431 26.8488 53.8492 26.6454 54.0553C26.8488 55.7041 26.0349 57.1468 24.8141 57.9712C21.762 60.2382 21.9654 63.1236 18.7098 64.3602C17.8959 64.9785 19.1168 65.5968 15.4542 67.8639C14.6403 66.2151 13.623 64.7724 13.623 64.3602C14.4369 62.5053 15.0473 62.5053 16.8786 61.4748C17.2855 61.2687 18.3029 60.8565 18.3029 61.2687C18.3029 61.2687 18.5064 61.2687 18.5064 61.0626C18.5064 60.8565 18.3029 60.6504 18.3029 60.4443L18.7098 58.5895L20.5411 57.9712C20.9481 57.7651 21.1515 57.3529 21.5585 56.9407C22.7793 55.2919 22.7793 53.437 23.3898 51.5821C23.7967 50.5516 23.7967 49.9333 24.0002 48.9029C23.7967 46.8419 24.0002 45.8114 23.5932 44.7809Z" fill="#E31F24"/>
</svg>
