<svg width="72" height="85" viewBox="0 0 72 85" fill="none" xmlns="http://www.w3.org/2000/svg">
<path d="M0.870422 32.7467C0.787445 32.8674 0.750877 33.0199 0.780556 33.1752C0.83947 33.4832 1.13698 33.6852 1.44505 33.6263C2.27211 33.4652 3.10584 33.3434 3.94396 33.2629C4.76479 33.184 5.60986 33.1437 6.47791 33.1437C10.6857 33.1437 14.6584 34.1348 18.1759 35.9032C21.8194 37.735 24.9791 40.4015 27.4099 43.6652C31.665 49.378 32.0044 53.2349 32.3489 57.1502C32.5919 59.9111 32.8373 62.7001 34.3778 66.1735C35.9858 69.7991 38.5977 72.8496 41.8557 74.9769C45.0242 77.0456 48.8013 78.2401 52.8578 78.2401C54.268 78.2401 56.5516 78.1469 58.5106 77.5655C60.6196 76.9395 62.3504 75.7569 62.3756 73.5526C62.3951 71.8494 62.9216 67.752 63.7835 64.4167C64.3487 62.23 65.0309 60.4121 65.7502 59.9535C66.284 59.6131 67.1466 59.4347 68.0218 59.2537C69.9707 58.8507 71.9719 58.4368 71.9997 56.2366C72.0276 54.0195 70.3252 51.8422 68.5457 49.5664C67.219 47.8695 65.8468 46.1146 65.2124 44.3363C64.8964 43.4504 64.683 42.5195 64.6027 41.5357C64.5219 40.5463 64.5744 39.5012 64.7906 38.3921C64.9244 37.7058 65.1164 36.9977 65.3056 36.2997C65.6543 35.0131 65.9941 33.7593 65.9941 32.575C65.9941 23.5798 62.348 15.436 56.453 9.54105C50.5581 3.64611 42.4144 0 33.4191 0C24.4238 0 16.28 3.64612 10.3851 9.54105C4.49015 15.436 0.844032 23.5798 0.844032 32.575C0.844032 32.6349 0.853294 32.6925 0.870422 32.7467ZM22.8196 22.4015L22.8196 19.9596C22.8196 19.6466 22.5659 19.3929 22.2529 19.3929C22.2243 19.3929 22.1962 19.395 22.1687 19.3991L22.1684 19.3973L17.9036 20.0505C17.6061 20.0952 17.3974 20.3627 17.4213 20.6581L17.4209 21.2041L17.4213 21.7954C17.4213 22.0797 17.6308 22.3152 17.9038 22.3558L17.9036 22.3576L22.1684 23.0109C22.479 23.0576 22.7685 22.8437 22.8152 22.5331C22.8218 22.4886 22.8231 22.4445 22.8196 22.4015ZM21.6862 20.6216L21.6862 21.7867L18.5544 21.3069V21.1012L21.6862 20.6216ZM22.8196 17.6002L22.8196 15.1583C22.8196 14.8453 22.5659 14.5916 22.2529 14.5916C22.2243 14.5916 22.1962 14.5937 22.1687 14.5978L22.1684 14.596L17.9036 15.2492C17.6061 15.2939 17.3974 15.5614 17.4213 15.8568L17.4209 16.4028L17.4213 16.9941C17.4213 17.2784 17.6308 17.5139 17.9038 17.5545L17.9036 17.5563L22.1684 18.2096C22.479 18.2563 22.7685 18.0423 22.8152 17.7318C22.8218 17.6873 22.8231 17.6432 22.8196 17.6002ZM21.6862 15.8203L21.6862 16.9854L18.5544 16.5056V16.2999L21.6862 15.8203ZM22.8196 27.2029L22.8196 24.7609C22.8196 24.4479 22.5659 24.1942 22.2529 24.1942C22.2243 24.1942 22.1962 24.1963 22.1687 24.2004L22.1684 24.1986L17.9036 24.8518C17.6061 24.8965 17.3974 25.1641 17.4213 25.4594L17.4209 26.0054L17.4213 26.5967C17.4213 26.881 17.6308 27.1165 17.9038 27.1572L17.9036 27.1589L22.1684 27.8123C22.479 27.8589 22.7685 27.645 22.8152 27.3345C22.8218 27.2899 22.8231 27.2459 22.8196 27.2029ZM21.6862 25.4229L21.6862 26.588L18.5544 26.1082V25.9025L21.6862 25.4229ZM46.9147 21.7867L46.9147 20.6216L50.0465 21.1012V21.3069L46.9147 21.7867ZM45.7813 19.9596L45.7813 22.4015C45.7778 22.4445 45.7791 22.4886 45.7857 22.5331C45.8324 22.8437 46.1219 23.0576 46.4325 23.0109L50.6973 22.3576L50.6971 22.3558C50.9701 22.3152 51.1796 22.0797 51.1796 21.7954L51.18 21.2041L51.1796 20.6581C51.2035 20.3627 50.9948 20.0952 50.6973 20.0505L46.4325 19.3973L46.4322 19.3991C46.4047 19.395 46.3766 19.3929 46.348 19.3929C46.035 19.3929 45.7813 19.6466 45.7813 19.9596ZM46.9147 16.9854L46.9147 15.8203L50.0465 16.2999V16.5056L46.9147 16.9854ZM45.7813 15.1583L45.7813 17.6002C45.7778 17.6432 45.7791 17.6873 45.7857 17.7318C45.8324 18.0423 46.1219 18.2563 46.4325 18.2096L50.6973 17.5563L50.6971 17.5545C50.9701 17.5139 51.1796 17.2784 51.1796 16.9941L51.18 16.4028L51.1796 15.8568C51.2035 15.5614 50.9948 15.2939 50.6973 15.2492L46.4325 14.596L46.4322 14.5978C46.4047 14.5937 46.3766 14.5916 46.348 14.5916C46.035 14.5916 45.7813 14.8453 45.7813 15.1583ZM46.9147 26.588L46.9147 25.4229L50.0465 25.9025V26.1082L46.9147 26.588ZM45.7813 24.7609L45.7813 27.2029C45.7778 27.2459 45.7791 27.2899 45.7857 27.3345C45.8324 27.645 46.1219 27.8589 46.4325 27.8123L50.6973 27.1589L50.6971 27.1572C50.9701 27.1165 51.1796 26.881 51.1796 26.5967L51.18 26.0054L51.1796 25.4594C51.2035 25.1641 50.9948 24.8965 50.6973 24.8518L46.4325 24.1986L46.4322 24.2004C46.4047 24.1963 46.3766 24.1942 46.348 24.1942C46.035 24.1942 45.7813 24.4479 45.7813 24.7609ZM35.4979 32.685L33.0559 32.685C32.7429 32.685 32.4892 32.9387 32.4892 33.2517C32.4892 33.2803 32.4913 33.3084 32.4954 33.3359L32.4936 33.3362L33.1468 37.601C33.1915 37.8985 33.4591 38.1072 33.7544 38.0833L34.3004 38.0837L34.8917 38.0833C35.176 38.0833 35.4115 37.8738 35.4522 37.6008L35.4539 37.601L36.1073 33.3361C36.1539 33.0256 35.94 32.7361 35.6295 32.6894C35.5849 32.6827 35.5409 32.6814 35.4979 32.685ZM33.7179 33.8184L34.883 33.8184L34.4032 36.9502H34.1975L33.7179 33.8184ZM30.6965 32.685L28.2546 32.685C27.9416 32.685 27.6879 32.9387 27.6879 33.2517C27.6879 33.2803 27.69 33.3084 27.6941 33.3359L27.6923 33.3362L28.3455 37.601C28.3902 37.8985 28.6577 38.1072 28.9531 38.0833L29.4991 38.0837L30.0904 38.0833C30.3747 38.0833 30.6102 37.8738 30.6509 37.6008L30.6526 37.601L31.3059 33.3361C31.3526 33.0256 31.1387 32.7361 30.8281 32.6894C30.7836 32.6827 30.7395 32.6814 30.6965 32.685ZM28.9166 33.8184L30.0817 33.8184L29.6019 36.9502H29.3962L28.9166 33.8184ZM40.2992 32.685L37.8572 32.685C37.5442 32.685 37.2905 32.9387 37.2905 33.2517C37.2905 33.2803 37.2926 33.3084 37.2967 33.3359L37.2949 33.3362L37.9481 37.601C37.9928 37.8985 38.2604 38.1072 38.5557 38.0833L39.1017 38.0837L39.693 38.0833C39.9774 38.0833 40.2128 37.8738 40.2535 37.6008L40.2553 37.601L40.9086 33.3361C40.9552 33.0256 40.7413 32.7361 40.4308 32.6894C40.3863 32.6827 40.3422 32.6814 40.2992 32.685ZM38.5192 33.8184L39.6843 33.8184L39.2046 36.9502H38.9988L38.5192 33.8184ZM61.4173 34.4681L61.6864 35.5737L62.792 35.3046L62.5229 34.199L61.4173 34.4681ZM48.1503 37.6968L48.4194 38.8024L49.5249 38.5333L49.2559 37.4277L48.1503 37.6968ZM52.5726 36.6205L52.8417 37.7261L53.9473 37.4571L53.6782 36.3515L52.5726 36.6205ZM56.995 35.5443L57.2641 36.6499L58.3697 36.3808L58.1006 35.2752L56.995 35.5443ZM58.79 45.1623C59.2145 44.0226 59.4076 42.9913 59.4087 41.9948C59.4099 40.9594 59.2033 39.9709 58.8334 38.9448L59.3675 38.8148C59.812 39.9184 60.0635 40.9487 60.0584 42.0198C60.0535 43.0495 59.8116 44.1369 59.2768 45.3876L58.79 45.1623ZM58.1404 39.1135C58.5 40.0918 58.7014 41.0252 58.7004 41.9948C58.6994 42.8896 58.5254 43.8239 58.1438 44.8631L50.0024 41.0939L58.1404 39.1135ZM13.4661 48.0334C13.3139 47.7597 12.9686 47.6612 12.6949 47.8133C12.4212 47.9655 12.3227 48.3108 12.4749 48.5845L14.799 52.7426C14.2355 52.9752 13.618 53.1036 12.9705 53.1036C11.6464 53.1036 10.4477 52.567 9.58006 51.6993C8.71243 50.8317 8.17577 49.633 8.17577 48.3089C8.17577 46.9849 8.71242 45.7862 9.58004 44.9185C10.4477 44.0509 11.6464 43.5142 12.9705 43.5142C14.2945 43.5142 15.4932 44.0509 16.3609 44.9185C17.2285 45.7862 17.7652 46.9849 17.7652 48.3089C17.7652 49.633 17.2285 50.8317 16.3609 51.6993C16.1834 51.8768 15.992 52.0405 15.7886 52.1885L13.4661 48.0334ZM15.3574 53.7416L16.7775 56.2823C15.6247 56.8337 14.3337 57.1426 12.9704 57.1426C10.531 57.1426 8.32259 56.1538 6.72408 54.5553C5.12553 52.9568 4.13681 50.7483 4.13681 48.3089C4.13681 45.8695 5.12553 43.6611 6.72408 42.0626C8.32259 40.464 10.531 39.4753 12.9704 39.4753C15.4098 39.4753 17.6183 40.464 19.2168 42.0626C20.8153 43.6611 21.8041 45.8696 21.8041 48.3089C21.8041 50.7483 20.8153 52.9568 19.2168 54.5553C18.7771 54.995 18.2911 55.3885 17.767 55.728L16.3469 53.1875C16.64 52.9842 16.9139 52.7552 17.1654 52.5038C18.239 51.4302 18.903 49.9471 18.903 48.3089C18.903 46.6708 18.239 45.1876 17.1654 44.114C16.0917 43.0404 14.6086 42.3764 12.9705 42.3764C11.3323 42.3764 9.84914 43.0404 8.77554 44.114C7.70195 45.1876 7.03791 46.6708 7.03791 48.3089C7.03791 49.9471 7.70195 51.4302 8.77556 52.5038C9.84916 53.5774 11.3323 54.2415 12.9705 54.2415C13.8196 54.2415 14.627 54.063 15.3574 53.7416ZM17.3337 57.2774L28.8879 77.9487C28.7801 78.0341 28.6774 78.1256 28.5803 78.2227C27.9359 78.8671 27.5374 79.7572 27.5374 80.7403C27.5374 81.7235 27.9359 82.6136 28.5803 83.258C29.2246 83.9023 30.1148 84.3009 31.0979 84.3009C32.0811 84.3009 32.9712 83.9023 33.6156 83.258C34.2599 82.6136 34.6585 81.7235 34.6585 80.7403C34.6585 79.7572 34.2599 78.8671 33.6156 78.2227C32.9712 77.5783 32.0811 77.1798 31.0979 77.1798C30.6692 77.1798 30.2581 77.2556 29.8774 77.3945L18.3232 56.7232C18.9384 56.3311 19.5078 55.8733 20.0213 55.3598C21.8258 53.5553 22.9419 51.0624 22.9419 48.3089C22.9419 45.5555 21.8258 43.0626 20.0213 41.2581C18.2168 39.4536 15.7239 38.3374 12.9704 38.3374C10.217 38.3374 7.72408 39.4536 5.91958 41.2581C4.1151 43.0626 2.99895 45.5555 2.99895 48.3089C2.99895 51.0624 4.1151 53.5553 5.91958 55.3598C7.72408 57.1643 10.217 58.2804 12.9704 58.2804C14.5352 58.2804 16.0158 57.9198 17.3337 57.2774ZM29.4537 78.961L30.6023 81.0159C30.7545 81.2896 31.0998 81.3881 31.3735 81.2359C31.6472 81.0837 31.7457 80.7385 31.5935 80.4648L30.4434 78.4071C30.6516 78.3488 30.8711 78.3176 31.0979 78.3176C31.767 78.3176 32.3727 78.5888 32.8111 79.0272C33.2495 79.4656 33.5206 80.0713 33.5206 80.7403C33.5206 81.4094 33.2495 82.0151 32.8111 82.4535C32.3727 82.8919 31.767 83.163 31.0979 83.163C30.4289 83.163 29.8232 82.8919 29.3848 82.4535C28.9464 82.0151 28.6752 81.4094 28.6752 80.7403C28.6752 80.0713 28.9464 79.4656 29.3848 79.0272C29.4073 79.0047 29.4303 78.9826 29.4537 78.961ZM34.883 8.58986L33.7179 8.58985L34.1975 5.45809H34.4032L34.883 8.58986ZM33.0559 9.72327L35.4979 9.72328C35.5409 9.72682 35.5849 9.72552 35.6295 9.71883C35.94 9.67219 36.1539 9.38264 36.1073 9.07211L35.4539 4.80724L35.4522 4.80751C35.4115 4.53445 35.176 4.32499 34.8917 4.32499L34.3004 4.3246L33.7544 4.32496C33.459 4.30105 33.1915 4.5098 33.1468 4.80724L32.4936 9.0721L32.4954 9.07237C32.4913 9.09984 32.4892 9.12794 32.4892 9.15656C32.4892 9.46954 32.7429 9.72327 33.0559 9.72327ZM30.0817 8.58986L28.9166 8.58985L29.3962 5.45809H29.6019L30.0817 8.58986ZM28.2546 9.72327L30.6965 9.72328C30.7395 9.72682 30.7836 9.72552 30.8281 9.71883C31.1387 9.67219 31.3526 9.38264 31.3059 9.07211L30.6526 4.80724L30.6509 4.80751C30.6102 4.53445 30.3747 4.32499 30.0904 4.32499L29.4991 4.3246L28.9531 4.32496C28.6577 4.30105 28.3902 4.5098 28.3455 4.80724L27.6923 9.0721L27.6941 9.07237C27.69 9.09984 27.6879 9.12794 27.6879 9.15656C27.6879 9.46954 27.9416 9.72327 28.2546 9.72327ZM39.6843 8.58986L38.5192 8.58985L38.9988 5.45809H39.2046L39.6843 8.58986ZM37.8572 9.72327L40.2992 9.72328C40.3422 9.72682 40.3863 9.72552 40.4308 9.71883C40.7413 9.67219 40.9552 9.38264 40.9086 9.07211L40.2553 4.80724L40.2535 4.80751C40.2128 4.53445 39.9774 4.32499 39.693 4.32499L39.1017 4.3246L38.5557 4.32496C38.2604 4.30105 37.9928 4.5098 37.9481 4.80724L37.295 9.0721L37.2967 9.07237C37.2927 9.09984 37.2905 9.12794 37.2905 9.15656C37.2905 9.46954 37.5442 9.72327 37.8572 9.72327ZM34.2826 28.7627L39.1412 28.7627C39.2394 28.7627 39.3282 28.7228 39.3924 28.6583L39.3926 28.6586L41.7359 26.3137C41.8087 26.2404 41.8429 26.1434 41.8387 26.0477L41.8387 16.3446C41.8387 16.2465 41.7987 16.1577 41.7342 16.0935L41.7345 16.0932L39.3896 13.75C39.3164 13.6771 39.2193 13.6429 39.1237 13.6472L29.4206 13.6472C29.3225 13.6472 29.2336 13.6871 29.1695 13.7516L29.1692 13.7513L26.826 16.0962C26.7531 16.1694 26.7189 16.2665 26.7232 16.3621L26.7232 26.0653C26.7232 26.1634 26.7631 26.2522 26.8276 26.3164L26.8273 26.3167L29.1722 28.6599C29.2414 28.7287 29.3318 28.7631 29.4222 28.7631V28.7641H34.2826V28.7627ZM38.9939 28.0544L34.2826 28.0543V28.0529H29.568L27.4315 25.918L27.4316 16.4934L29.5679 14.3555L38.9924 14.3556L41.1303 16.4919L41.1303 25.9165L38.9939 28.0544ZM34.2832 31.4019L40.7786 31.4019C40.9356 31.4019 41.0777 31.338 41.1804 31.2348L41.1808 31.2353L44.3134 28.1004C44.4299 27.9833 44.4846 27.8282 44.4779 27.6753L44.4779 14.7073C44.4779 14.5502 44.414 14.4081 44.3108 14.3055L44.3112 14.3051L41.1764 11.1724C41.0593 11.056 40.9042 11.0012 40.7513 11.008L27.7833 11.0079C27.6262 11.0079 27.4841 11.0718 27.3814 11.175L27.381 11.1746L24.2484 14.3094C24.132 14.4265 24.0772 14.5817 24.0839 14.7346L24.0839 27.7026C24.0839 27.8596 24.1478 28.0018 24.251 28.1044L24.2506 28.1048L27.3854 31.2375C27.5025 31.3539 27.6576 31.4087 27.8105 31.4019L34.2832 31.4019ZM40.5429 30.2685L28.0209 30.2685L25.2173 27.4669L25.2174 14.9449L28.0189 12.1413L40.5409 12.1414L43.3445 14.943L43.3445 27.465L40.5429 30.2685ZM64.074 36.5022L48.157 40.3759C47.8526 40.4495 47.6655 40.756 47.7392 41.0603C47.7815 41.2355 47.901 41.3718 48.0528 41.4419L48.0525 41.4426L59.3205 46.6593C59.6053 46.7906 59.9426 46.6662 60.0739 46.3815L60.0762 46.3764C60.8436 44.7552 61.1854 43.3606 61.1918 42.0242C61.1975 40.8388 60.9397 39.7193 60.4812 38.5438L63.7656 37.7445C63.7337 37.8887 63.7033 38.0334 63.675 38.1787C63.4381 39.3937 63.3807 40.5393 63.4693 41.6246C63.5583 42.7156 63.7935 43.7437 64.1413 44.7186C64.8335 46.659 66.2666 48.492 67.6524 50.2642C69.3065 52.3798 70.8892 54.4039 70.8662 56.2232C70.85 57.5108 69.3023 57.8308 67.7951 58.1425C66.8169 58.3448 65.8527 58.5442 65.1413 58.9979C64.143 59.6344 63.3141 61.7006 62.6857 64.1323C61.8329 67.432 61.3003 71.4846 61.2462 73.3511C56.5339 74.7523 51.4586 74.5546 47.0836 72.8533C42.8455 71.2053 39.2668 68.1436 37.3208 63.756C35.8428 60.4235 35.6041 57.7107 35.3678 55.0252C35.0118 50.9802 34.6612 46.9956 30.2482 41.0707C27.1048 36.8503 22.491 33.4934 17.3831 31.4554C12.4667 29.4939 7.08862 28.7526 2.11832 29.6367C2.81424 22.1282 6.14995 15.3852 11.1896 10.3455C16.8785 4.65658 24.7379 1.13786 33.4191 1.13786C42.1003 1.13786 49.9596 4.65658 55.6486 10.3455C61.3375 16.0345 64.8562 23.8939 64.8562 32.575C64.8562 33.6135 64.5361 34.7945 64.2077 36.0063C64.163 36.1711 64.1182 36.3363 64.074 36.5022ZM2.05875 30.3691C6.94873 29.457 12.2636 30.1754 17.122 32.1138C22.1112 34.1044 26.6146 37.3791 29.6787 41.493C33.9702 47.2548 34.3122 51.1412 34.6594 55.0863C34.9008 57.8299 35.1447 60.6013 36.6708 64.0422C38.6981 68.6132 42.4212 71.8008 46.828 73.5145C51.2605 75.2381 56.3869 75.4679 61.1707 74.1111C60.8683 75.3222 59.6433 76.0453 58.1905 76.4765C56.3736 77.0158 54.2032 77.1023 52.8578 77.1023C49.0255 77.1023 45.4608 75.9761 42.4735 74.0257C39.401 72.0195 36.9366 69.1401 35.4179 65.7157C33.9543 62.4157 33.7171 59.7205 33.4823 57.0524C33.1238 52.9775 32.7705 48.9634 28.3211 42.9896C25.7854 39.5852 22.4874 36.8027 18.6826 34.8898C15.0065 33.0416 10.8613 32.0058 6.47791 32.0058C5.6003 32.0058 4.71924 32.0492 3.83729 32.1339C3.20927 32.1942 2.59102 32.275 1.98316 32.3754C1.98736 31.7014 2.01279 31.0325 2.05875 30.3691Z" fill="black"/>
</svg>
