<svg width="213" height="41" viewBox="0 0 213 41" fill="none" xmlns="http://www.w3.org/2000/svg">
<g clip-path="url(#clip0_93_181)">
<path d="M66.2895 13.5045C66.4385 13.2058 66.5874 12.9071 66.8854 13.0565H72.0991C72.3971 13.0565 72.695 13.3552 72.695 13.6539V39.7903C72.695 40.089 72.3971 40.3877 72.0991 40.3877H66.8854C66.5874 40.3877 66.4385 40.089 66.2895 39.7903L65.3957 37.102C63.6081 39.4916 60.9268 40.9851 57.5006 40.9851C49.3075 40.9851 43.7958 35.1604 43.7958 26.7968C43.7958 18.4331 49.3075 12.6084 57.5006 12.6084C60.7778 12.6084 63.4592 13.6539 65.3957 16.3422L66.2895 13.5045ZM57.7985 33.3682C61.8206 33.3682 64.6509 30.6799 64.6509 26.6474C64.6509 22.6149 61.8206 19.9266 57.7985 19.9266C53.7764 19.9266 51.0951 22.6149 51.0951 26.6474C51.0951 30.6799 53.9254 33.3682 57.7985 33.3682Z" fill="black"/>
<path d="M89.3791 40.8357C81.037 40.8357 75.3763 35.011 75.3763 26.6473C75.3763 17.2382 82.2287 12.6083 89.2301 12.459C94.2949 12.459 98.6149 14.2512 101.445 18.5824C101.743 18.8811 101.743 19.1798 101.445 19.3291L96.6784 23.2123C96.5294 23.3616 96.3804 23.3616 96.2315 23.3616C96.0825 23.3616 95.7846 23.2123 95.7846 23.0629C94.2949 20.972 92.2094 19.7772 89.528 19.7772C85.506 19.7772 82.8246 22.4655 82.8246 26.6473C82.8246 30.6798 85.506 33.5175 89.528 33.5175C92.9542 33.5175 94.7418 31.7253 95.6356 30.5305C95.7846 30.3811 96.0825 30.2318 96.2315 30.2318C96.3804 30.2318 96.5294 30.2318 96.6784 30.3811L100.998 34.4136C101.296 34.5629 101.296 34.8616 101.147 35.1604C98.4659 38.8941 94.4439 40.8357 89.3791 40.8357Z" fill="black"/>
<path d="M104.276 40.2382C103.978 40.2382 103.68 39.9395 103.68 39.7901V1.25756C103.68 0.958858 103.978 0.660156 104.276 0.660156H110.532C110.83 0.660156 111.128 0.958858 111.128 1.25756V15.5953C112.767 13.6537 115.299 12.6082 118.427 12.6082C126.62 12.6082 132.132 18.2836 132.132 26.7966C132.132 35.1603 126.62 40.9849 118.427 40.9849C115.001 40.9849 112.171 39.4914 110.383 37.1018L109.489 39.7901C109.34 40.0888 109.191 40.3875 108.893 40.3875H104.276V40.2382ZM111.277 26.6472C111.277 30.6797 114.107 33.5174 118.129 33.5174C122.002 33.5174 124.833 30.6797 124.833 26.6472C124.833 22.6148 122.151 19.7771 118.129 19.7771C113.958 19.7771 111.277 22.6148 111.277 26.6472Z" fill="black"/>
<path d="M149.412 33.9656C151.944 33.9656 153.881 33.2188 155.073 32.1734C155.371 32.024 155.52 31.8747 155.669 31.8747C155.817 31.8747 155.966 32.024 156.115 32.1734L159.988 36.2059C160.286 36.5046 160.286 36.8033 159.988 37.102C157.456 39.7903 153.732 40.9851 148.965 40.9851C140.325 40.9851 134.664 35.3098 134.664 26.7968C134.664 18.4331 140.325 12.6084 148.667 12.6084C157.009 12.6084 162.819 17.537 162.67 29.037C162.67 29.3357 162.372 29.6344 162.074 29.6344H142.56C143.453 32.1734 145.688 33.9656 149.412 33.9656ZM154.924 24.2578C154.179 21.4201 152.093 19.4785 148.667 19.4785C145.092 19.4785 143.006 21.4201 142.411 24.2578H154.924Z" fill="black"/>
<path d="M212.126 39.6408C212.126 39.9395 211.828 40.2382 211.531 40.2382H173.246C172.949 40.2382 172.651 39.9395 172.651 39.6408V1.25756C172.651 0.958858 172.949 0.660156 173.246 0.660156H211.531C211.977 0.660156 212.126 0.958858 212.126 1.25756V39.6408Z" fill="#FDBA12"/>
<path d="M33.8151 39.6408C33.8151 39.9395 33.5172 40.2382 33.2193 40.2382H26.8138C26.5158 40.2382 26.2179 39.9395 26.2179 39.6408V13.5044C26.2179 13.2057 26.5158 12.907 26.8138 12.907H31.1337C31.5806 12.907 31.8786 13.2057 31.8786 13.5044L32.4744 15.1472C34.262 13.5044 36.4965 12.3096 39.3268 12.3096C41.1144 12.3096 42.6041 12.7576 43.3489 13.0563C43.6468 13.2057 43.7958 13.5044 43.7958 13.8031L42.3061 20.3745C42.3061 20.6732 42.0082 20.8226 41.7103 20.8226C41.7103 20.8226 41.5613 20.8226 41.4123 20.8226C40.6675 20.5239 39.0289 20.0758 37.8372 20.0758C36.1986 20.0758 34.7089 20.9719 33.6662 22.7641C33.5172 22.9135 33.5172 23.0628 33.5172 23.3615V39.6408H33.8151Z" fill="black"/>
<path d="M0.446895 8.12771C0.29793 8.12771 0 7.82901 0 7.53031V1.25756C0 0.958858 0.29793 0.660156 0.59586 0.660156H28.7503C29.0482 0.660156 29.1972 0.958858 29.1972 1.25756V7.53031C29.1972 7.82901 29.0482 7.97836 28.7503 7.97836H18.4717V39.6408C18.4717 39.9395 18.3227 40.0888 18.0248 40.0888H11.3213C11.0234 40.0888 10.8745 39.7901 10.8745 39.6408V8.12771H0.446895Z" fill="black"/>
<path d="M172.651 39.6408C172.651 39.9395 172.353 40.2382 172.055 40.2382H165.798C165.5 40.2382 165.202 39.9395 165.202 39.6408V1.25756C165.202 0.958858 165.5 0.660156 165.798 0.660156H172.055C172.502 0.660156 172.651 0.958858 172.651 1.25756V39.6408Z" fill="black"/>
<path d="M158.35 4.99124V6.48475H157.754V2.75098H159.095C159.84 2.75098 160.286 3.19903 160.435 3.94579C160.435 4.54319 160.137 4.99124 159.542 5.14059L160.435 6.6341H159.84L158.946 5.14059H158.35V4.99124ZM158.35 3.34838V4.54319H159.095C159.393 4.54319 159.691 4.39384 159.691 3.94579C159.691 3.49773 159.393 3.34838 159.095 3.34838H158.35Z" fill="black"/>
<path d="M158.797 0.660156C156.562 0.660156 154.924 2.45237 154.924 4.54328C154.924 6.78355 156.711 8.42641 158.797 8.42641C161.031 8.42641 162.67 6.6342 162.67 4.54328C162.819 2.45237 161.031 0.660156 158.797 0.660156ZM158.797 8.12771C156.86 8.12771 155.371 6.6342 155.371 4.69264C155.371 2.75107 156.86 1.25756 158.797 1.25756C160.733 1.25756 162.223 2.75107 162.223 4.69264C162.223 6.48485 160.733 8.12771 158.797 8.12771Z" fill="black"/>
</g>
<defs>
<clipPath id="clip0_93_181">
<rect width="212.126" height="40.1754" fill="white" transform="translate(0 0.660156)"/>
</clipPath>
</defs>
</svg>
