<svg width="175" height="34" viewBox="0 0 175 34" fill="none" xmlns="http://www.w3.org/2000/svg">
<path d="M151.971 3.51001H160.993V25.708H174.997V32.9176H151.971V3.51001ZM124.81 3.51001H133.832V25.708H147.836V32.9176H124.81V3.51001ZM109.867 3.51001H118.889V21.0597C118.889 21.9135 118.795 22.7672 118.701 23.621C118.607 24.4748 118.325 25.2337 118.137 25.9926C117.855 26.7515 117.573 27.5104 117.103 28.1744C116.633 28.8385 116.163 29.5025 115.6 30.0717C115.036 30.6409 114.472 31.1152 113.814 31.5895C113.25 31.9689 112.592 32.3484 111.934 32.5381C111.088 32.8227 110.148 33.1073 109.021 33.297C107.987 33.4868 106.859 33.5816 105.637 33.5816C104.885 33.5816 104.228 33.5816 103.382 33.4868C102.63 33.3919 101.784 33.3919 100.938 33.2022C100.092 33.1073 99.3404 33.0124 98.5885 32.8227C97.8367 32.633 97.2728 32.3484 96.7089 32.0638C96.145 31.7792 95.581 31.3998 95.1111 31.0203C94.5472 30.6409 94.0773 30.0717 93.6074 29.5025C93.1375 28.9333 92.7616 28.459 92.4796 27.8898C92.1977 27.3207 91.9157 26.7515 91.7277 26.1823C91.4458 25.2337 91.2578 24.3799 91.1638 23.5261C90.9759 22.6724 90.9759 21.9135 90.9759 21.2494V3.51001H99.9983V21.4391C99.9983 22.198 100.092 22.957 100.28 23.621C100.468 24.285 100.844 24.7594 101.22 25.2337C102.16 26.1823 103.382 26.5618 104.885 26.5618C106.389 26.5618 107.611 26.0874 108.551 25.2337C109.021 24.7594 109.303 24.285 109.491 23.621C109.679 22.957 109.867 22.2929 109.867 21.4391V3.51001ZM68.3259 26.5618H72.9311C73.6829 26.5618 74.3408 26.4669 74.9047 26.372C75.4686 26.2772 75.8445 25.9926 76.2205 25.8028C76.5024 25.5183 76.7844 25.2337 76.9723 24.8542C77.1603 24.4748 77.2543 24.0953 77.2543 23.621C77.2543 23.1467 77.1603 22.7672 76.9723 22.4826C76.7844 22.1032 76.5964 21.8186 76.3145 21.534C76.0325 21.2494 75.5626 21.0597 74.9987 20.9648C74.4348 20.87 73.7769 20.7751 72.9311 20.7751H68.4199V26.5618H68.3259ZM68.3259 14.9884H72.2732C73.6829 14.9884 74.7167 14.7039 75.1867 14.2295C75.4686 13.945 75.6566 13.6604 75.8445 13.3758C75.9385 12.9963 76.0325 12.6169 76.0325 12.1426C76.0325 11.6682 75.9385 11.2888 75.8445 11.0042C75.7506 10.6247 75.4686 10.3402 75.1867 10.1504C74.9047 9.86584 74.5288 9.67611 74.0589 9.58125C73.5889 9.48639 73.025 9.48639 72.3672 9.48639H68.4199V14.9884H68.3259ZM59.3035 3.51001H76.1265C78.946 3.51001 81.1076 4.17405 82.6113 5.597C83.3632 6.3559 83.9271 7.11481 84.303 7.96858C84.679 8.82235 84.8669 9.77098 84.8669 10.8145C84.8669 11.6682 84.773 12.522 84.491 13.2809C84.2091 14.0398 83.8331 14.7039 83.2692 15.3679C82.8933 15.7474 82.4234 16.1268 81.9535 16.5063C81.3896 16.7908 80.8257 17.0754 80.1678 17.36C81.2016 17.6446 82.1414 17.9292 82.8933 18.4035C83.6452 18.8778 84.303 19.3522 84.773 20.0162C85.2429 20.5854 85.6188 21.3443 85.9008 22.1032C86.1827 22.8621 86.2767 23.7159 86.2767 24.6645C86.2767 25.4234 86.1827 26.1823 85.9947 26.8463C85.8068 27.5104 85.6188 28.1744 85.2429 28.7436C84.8669 29.3128 84.491 29.882 84.0211 30.3563C83.5512 30.8306 82.9873 31.3049 82.4234 31.5895C82.0474 31.7792 81.5775 31.969 81.0136 32.1587C80.4497 32.3484 79.7918 32.4433 79.04 32.5381C78.0062 32.7279 77.1603 32.8227 76.5024 32.8227C75.8445 32.9176 75.3746 32.9176 74.9987 32.9176H59.3035V3.51001Z" fill="#2B2929"/>
<path d="M151.595 3.13037H160.618V25.3283H174.621V32.5379H151.595V3.13037ZM124.434 3.13037H133.456V25.3283H147.554V32.5379H124.528V3.13037H124.434ZM109.491 3.13037H118.513V20.6801C118.513 21.5338 118.419 22.3876 118.325 23.2414C118.231 24.0951 117.949 24.854 117.761 25.6129C117.479 26.3718 117.103 27.1307 116.727 27.7948C116.257 28.4588 115.788 29.1229 115.224 29.692C114.66 30.2612 114.096 30.7355 113.438 31.2099C112.874 31.5893 112.216 31.9688 111.558 32.1585C110.712 32.4431 109.773 32.7277 108.645 32.9174C107.611 33.1071 106.483 33.202 105.261 33.202C104.51 33.202 103.852 33.202 103.006 33.1071C102.254 33.0123 101.408 33.0123 100.562 32.8225C99.7164 32.7277 98.9645 32.6328 98.2127 32.4431C97.4608 32.2534 96.8969 31.9688 96.333 31.6842C95.7691 31.3996 95.2052 31.0201 94.7353 30.6407C94.1714 30.2612 93.7015 29.6921 93.2315 29.1229C92.7616 28.5537 92.3857 28.0794 92.1037 27.5102C91.8218 26.941 91.5398 26.3718 91.3519 25.8027C91.0699 24.854 90.882 24.0003 90.788 23.1465C90.6 22.2927 90.6 21.5338 90.6 20.8698V3.13037H99.6224V21.0595C99.6224 21.8184 99.7164 22.5773 99.9044 23.2414C100.092 23.9054 100.468 24.3797 100.844 24.854C101.784 25.8027 103.006 26.1821 104.51 26.1821C106.013 26.1821 107.235 25.7078 108.175 24.854C108.645 24.3797 108.927 23.9054 109.115 23.2414C109.303 22.5773 109.491 21.9133 109.491 21.0595V3.13037ZM68.044 26.1821H72.6492C73.4011 26.1821 74.0589 26.0872 74.6228 25.9924C75.1867 25.8975 75.5627 25.6129 75.9386 25.4232C76.2206 25.1386 76.5025 24.854 76.6905 24.4746C76.8784 24.0951 76.9724 23.7157 76.9724 23.2414C76.9724 22.767 76.8784 22.3876 76.6905 22.103C76.5025 21.7235 76.3145 21.439 76.0326 21.1544C75.7506 20.8698 75.2807 20.6801 74.7168 20.5852C74.1529 20.4903 73.495 20.3955 72.6492 20.3955H68.138V26.1821H68.044ZM68.044 14.7037H71.9913C73.401 14.7037 74.4349 14.4191 74.9048 13.9448C75.1867 13.6602 75.3747 13.3756 75.5627 13.091C75.6567 12.7115 75.7506 12.3321 75.7506 11.8578C75.7506 11.3835 75.6567 11.004 75.5627 10.7194C75.4687 10.34 75.1867 10.0554 74.9048 9.86565C74.6228 9.58106 74.2469 9.39134 73.777 9.29647C73.3071 9.20161 72.7432 9.10675 72.0853 9.10675H68.138V14.7037H68.044ZM58.9276 3.13037H75.7506C78.5701 3.13037 80.7318 3.79441 82.2355 5.21736C82.9874 5.97627 83.5513 6.73517 83.9272 7.58894C84.3031 8.44271 84.4911 9.39134 84.4911 10.4348C84.4911 11.2886 84.3971 12.1424 84.1152 12.9013C83.8332 13.6602 83.4573 14.3242 82.8934 14.9883C82.5174 15.3677 82.0475 15.7472 81.5776 16.1266C81.0137 16.4112 80.4498 16.6958 79.7919 16.9804C80.8257 17.265 81.7656 17.5496 82.5174 18.0239C83.2693 18.4982 83.9272 18.9725 84.3971 19.6366C84.867 20.3006 85.243 20.9646 85.5249 21.7235C85.8069 22.4825 85.9008 23.3362 85.9008 24.2849C85.9008 25.0438 85.8069 25.8027 85.6189 26.4667C85.4309 27.1307 85.243 27.7948 84.867 28.364C84.4911 28.9331 84.1152 29.5023 83.6452 29.9766C83.1753 30.451 82.6114 30.9253 82.0475 31.2099C81.6716 31.3996 81.2017 31.5893 80.6378 31.779C80.0739 31.9688 79.416 32.0636 78.6641 32.1585C77.6303 32.3482 76.7845 32.4431 76.1266 32.4431C75.4687 32.5379 74.9988 32.5379 74.6228 32.5379H58.9276V3.13037Z" fill="#E31F24"/>
<path fill-rule="evenodd" clip-rule="evenodd" d="M10.7141 20.5853L10.6201 20.3956C10.1502 19.4469 9.86825 18.4035 9.77427 17.6445C9.5863 16.6959 9.68029 15.4627 9.86825 14.5141C9.96224 14.1346 10.0562 13.85 10.1502 13.4706H10.0562V13.2808H9.96224C7.14274 14.4192 3.9473 11.3836 4.98112 8.44282C5.639 6.54556 7.70664 5.50206 8.55249 3.69966C8.92842 2.94076 8.92842 1.99213 8.36452 1.32808C7.98859 1.04349 7.61265 0.853768 7.14274 0.853768C5.73299 0.853768 5.73299 2.18185 5.16909 3.13048C4.88714 3.50994 4.41722 3.88939 3.9473 3.98425C2.91348 4.17398 2.44357 3.13048 1.78568 2.65617C1.50373 2.46644 1.03382 2.46644 0.84585 2.18185C0.657884 1.8024 0.469917 1.42295 0.28195 1.04349C0.187967 1.04349 0.0939834 0.948631 0 0.853768V0.569179C0.657884 0.664042 0.84585 1.13836 1.31577 1.23322C1.78568 1.32808 2.06763 0.948631 2.53755 0.948631C3.00747 0.948631 3.3834 1.32808 3.85332 1.42295C4.32323 1.42295 5.35705 0.664042 5.82697 0.474316C6.2029 0.284589 6.57884 0.189726 6.95477 0C7.8946 0 9.11639 0.474316 9.39834 1.32808C10.4322 4.3637 7.23672 5.97638 6.29689 8.25309C5.35705 10.5298 7.70664 11.8579 9.5863 11.8579C9.96224 11.6682 10.3382 11.4784 10.8081 11.3836C12.4998 10.3401 14.5674 8.91714 16.729 8.91714C17.5749 8.91714 18.2328 9.29659 18.8907 9.48631C19.4546 9.58118 20.0185 9.48631 20.6763 9.58118C23.2139 10.2452 26.2214 10.2452 28.289 7.77878C28.6649 7.30446 28.5709 6.64042 28.6649 6.07124C28.8529 4.55343 30.1687 3.32021 31.5784 3.03562C35.3377 2.27672 37.6873 6.1661 40.1309 8.25309C40.6008 8.63255 40.9767 9.29659 41.5406 9.39145C42.1045 9.48631 42.3865 9.96063 42.6684 10.2452C43.0444 10.8144 44.0782 11.3836 44.6421 11.9528C45.206 12.5219 46.9917 15.1781 47.5556 15.1781V15.0832C47.9315 14.7987 48.0255 14.3243 48.4014 13.9449C49.0593 13.186 51.6908 11.0041 52.6307 11.0041C52.6307 11.763 51.6908 12.3322 51.3149 12.8065C50.939 13.3757 50.657 13.9449 50.3751 14.5141C50.0931 14.9884 50.2811 15.0832 50.4691 14.9884C50.939 14.5141 53.4765 12.6168 54.0404 12.6168C53.9464 13.186 53.5705 13.4706 53.0066 13.9449C52.6307 14.4192 52.1608 14.9884 51.7848 15.4627C51.4089 16.0319 51.033 16.6011 50.657 17.1702C50.3751 17.4548 50.1871 17.8343 49.9052 18.1189C49.4352 19.0675 49.0593 20.0161 48.4014 20.8699C48.0255 21.2493 47.5556 21.5339 47.1796 21.9134C46.6157 22.4826 45.9579 23.0517 45.394 23.6209C45.018 23.9055 44.6421 24.1901 44.2662 24.4747C43.7023 24.949 43.3263 25.7079 42.6684 25.8028C42.2925 25.8028 41.8226 25.613 41.5406 25.4233C39.9429 24.4747 41.1647 22.9569 40.4128 22.198C40.1309 22.1031 39.755 22.7672 39.1911 22.0083C38.6272 22.2928 38.2512 22.5774 37.2174 22.198C36.4655 22.6723 38.9091 25.613 38.9091 26.372C38.9091 26.4668 38.9091 26.4668 38.8151 26.5617C38.7211 26.9411 38.5332 27.1309 38.0633 27.6052C37.6873 28.3641 37.3114 29.0281 36.9355 29.6922C36.7475 30.0716 36.7475 30.4511 36.1836 30.7357C35.9956 31.0203 36.2776 32.7278 35.9016 32.7278H34.5859L34.4919 31.5894C34.4919 31.1151 34.9618 30.7357 34.9618 30.5459C34.9618 30.2613 34.6799 30.0716 34.8678 29.8819C35.5257 29.4076 36.6535 27.5103 36.7475 26.6565C36.6535 26.372 36.3716 26.2771 36.1836 26.0874C35.9016 25.8976 35.5257 25.6131 35.2438 25.6131C35.0558 25.8976 34.9618 26.8463 34.6799 27.1309C33.834 27.8898 32.2363 27.9846 31.2965 28.2692C31.1085 28.4589 30.9205 28.7435 30.3566 28.7435C29.7927 29.123 29.5108 29.787 28.7589 29.8819C28.7589 29.8819 28.195 28.4589 28.007 28.3641C28.289 28.0795 28.477 28.3641 28.6649 28.0795C28.8529 27.8898 29.6048 27.7949 29.6048 27.7H29.6987C29.6987 27.5103 29.6048 27.036 29.7927 27.036C30.3566 26.6565 32.6122 27.1309 32.7062 26.2771C32.8002 25.8028 32.1423 24.7593 31.8604 24.3798C29.4168 21.5339 29.6987 23.5261 25.9394 23.6209C25.7514 23.6209 25.8454 24.0952 25.8454 24.285H25.7514V24.3798C24.6236 24.285 23.8718 23.6209 22.838 23.3363C21.8981 23.0517 20.6763 22.5774 19.7365 22.9569C19.4546 23.0517 19.1726 23.1466 18.8907 23.1466C18.7967 23.6209 18.6087 24.0952 18.3268 24.5696C17.6689 25.5182 17.011 25.8976 16.4471 26.9411C16.4471 27.7 16.0712 28.0795 15.6952 29.0281C15.3193 29.787 15.2253 30.6408 14.9434 31.3048C14.8494 31.3997 15.0373 31.5894 15.0373 31.7792C15.2253 32.3483 15.1313 32.4432 15.0373 32.7278C14.3795 32.7278 14.2855 32.6329 13.3456 32.8226C13.4396 32.3483 13.1577 31.7792 13.7216 30.7357C13.7216 30.7357 13.7216 30.6408 13.7216 30.5459C13.7216 30.4511 13.6276 30.2613 13.6276 30.0716C13.5336 29.787 13.4396 29.5024 13.3456 29.4076C14.8494 27.6052 14.3795 25.7079 13.0637 24.1901L12.8757 24.285C12.6878 24.3798 12.5938 24.4747 12.4058 24.5696C12.3118 24.6644 12.2178 24.7593 12.1239 24.8541C12.2178 25.6131 11.8419 26.2771 11.278 26.6565C9.86825 27.7 9.96224 29.0281 8.4585 29.5973C8.08257 29.8819 8.64647 30.1665 6.95477 31.21C6.57884 30.4511 6.10892 29.787 6.10892 29.5973C6.48485 28.7435 6.7668 28.7435 7.61265 28.2692C7.80062 28.1744 8.27054 27.9846 8.27054 28.1744C8.27054 28.1744 8.36452 28.1744 8.36452 28.0795C8.36452 27.9846 8.27054 27.8898 8.27054 27.7949L8.4585 26.9411L9.30435 26.6565C9.49232 26.5617 9.5863 26.372 9.77427 26.1822C10.3382 25.4233 10.3382 24.5696 10.6201 23.7158C10.8081 23.2415 10.8081 22.9569 10.9021 22.4826C10.8081 21.5339 10.9021 21.0596 10.7141 20.5853Z" fill="#2B2929"/>
<path fill-rule="evenodd" clip-rule="evenodd" d="M39.473 21.5339C39.1911 22.198 38.9091 22.4826 39.473 21.5339Z" fill="white"/>
<path fill-rule="evenodd" clip-rule="evenodd" d="M40.5068 21.7236C40.2249 22.3877 40.0369 22.6723 40.5068 21.7236Z" fill="white"/>
<path fill-rule="evenodd" clip-rule="evenodd" d="M18.8906 23.1466V23.0518C18.9846 20.5853 18.7027 18.9727 18.1388 17.7394C18.0448 17.5497 17.8568 17.0754 18.1388 17.7394C18.8906 18.9727 19.1726 21.1545 18.8906 23.1466Z" fill="white"/>
<path fill-rule="evenodd" clip-rule="evenodd" d="M35.1497 25.8976L35.2437 25.7079C36.1836 22.7671 34.6798 20.6802 33.74 20.0161C35.1497 21.0596 35.9956 23.9055 35.1497 25.8976Z" fill="white"/>
<path fill-rule="evenodd" clip-rule="evenodd" d="M30.0747 22.8621V22.7672C29.3229 21.7237 29.4169 20.9648 29.4169 20.9648C29.3229 20.9648 29.2289 21.7237 30.0747 22.8621Z" fill="white"/>
<path fill-rule="evenodd" clip-rule="evenodd" d="M28.571 7.20972L28.4771 7.39944C28.4771 9.01212 28.853 9.86588 29.1349 10.9094C28.759 9.5813 28.4771 8.5378 28.571 7.20972Z" fill="white"/>
<path fill-rule="evenodd" clip-rule="evenodd" d="M41.5406 9.48633C40.9767 9.58119 40.4128 9.86578 39.9429 10.435C39.285 11.1939 38.909 12.2374 38.7211 12.3322C38.909 12.3322 39.285 11.2887 39.9429 10.5298C40.5068 9.67605 41.1646 9.48633 41.5406 9.48633Z" fill="white"/>
<path fill-rule="evenodd" clip-rule="evenodd" d="M42.7626 10.5298C42.1047 10.6246 41.4468 11.0041 40.7889 11.6681C39.9431 12.5219 39.5671 13.85 39.3792 13.9449C39.5671 13.85 40.131 12.7116 40.8829 11.763C41.6347 10.8144 42.3866 10.5298 42.7626 10.5298Z" fill="white"/>
<path fill-rule="evenodd" clip-rule="evenodd" d="M37.2174 22.2928C37.2174 22.2928 37.0295 22.1031 37.0295 22.0082C37.1235 21.9134 36.6535 21.7236 36.6535 21.7236C36.5596 21.7236 37.0295 21.9134 37.0295 22.0082L37.2174 22.2928Z" fill="white"/>
<path fill-rule="evenodd" clip-rule="evenodd" d="M41.3527 25.4233L41.6346 25.1387C41.6346 25.3284 41.6346 25.4233 41.4466 25.5181C41.3527 25.5181 41.3527 25.5181 41.3527 25.4233Z" fill="white"/>
<path fill-rule="evenodd" clip-rule="evenodd" d="M21.2403 22.3877L21.5223 22.862H21.4283C21.2403 22.7671 21.0523 22.7671 20.8644 22.7671C20.9584 22.6723 21.1463 22.7671 21.2403 22.4826C21.2403 22.5774 21.2403 22.3877 21.2403 22.3877Z" fill="white"/>
<path fill-rule="evenodd" clip-rule="evenodd" d="M10.7142 20.6802L13.4398 24.6644C12.4059 23.1466 12.218 22.862 10.7142 20.6802Z" fill="white"/>
<path fill-rule="evenodd" clip-rule="evenodd" d="M0.657867 0.85376C0.845834 1.13835 1.0338 1.61266 1.40974 1.89725C1.0338 1.5178 1.0338 1.5178 0.657867 0.85376Z" fill="white"/>
<path fill-rule="evenodd" clip-rule="evenodd" d="M50.1871 15.0833C50.0931 15.1781 49.9991 15.273 49.9052 15.3678C49.9991 15.273 49.9991 15.273 50.1871 15.0833Z" fill="white"/>
</svg>
