<svg width="164" height="54" viewBox="0 0 164 54" fill="none" xmlns="http://www.w3.org/2000/svg">
<g clip-path="url(#clip0_93_117)">
<path d="M158.133 46.0459V52.2325H159.534C160.06 52.2325 160.41 52.2325 160.673 52.1441C161.023 52.0557 161.198 51.9674 161.461 51.7906C161.636 51.6138 161.811 51.3487 161.899 50.9068C161.986 50.4649 162.074 49.9346 162.074 49.1392C162.074 48.4322 161.986 47.9019 161.899 47.46C161.811 47.1065 161.636 46.753 161.373 46.5762C161.11 46.3111 160.848 46.2227 160.498 46.1343C160.235 46.0459 159.71 46.0459 159.009 46.0459H158.133ZM156.295 44.4551H159.71C160.498 44.4551 161.023 44.5435 161.461 44.6318C161.986 44.8086 162.511 45.0737 162.862 45.5156C163.212 45.9575 163.562 46.3994 163.737 47.0181C163.912 47.6367 164 48.3438 164 49.2276C164 50.023 163.912 50.6417 163.737 51.1719C163.475 51.879 163.212 52.4093 162.774 52.8511C162.424 53.2047 161.986 53.3814 161.461 53.5582C161.023 53.6466 160.498 53.7349 159.797 53.7349H156.295V44.4551ZM150.428 53.8233V46.0459H147.714V44.4551H155.069V46.0459H152.354V53.8233H150.428ZM140.534 53.8233V44.5435H142.373V52.2325H147.013V53.8233H140.534ZM131.077 53.8233V46.0459H128.363V44.4551H135.718V46.0459H133.004V53.8233H131.077ZM122.672 53.8233L119.344 44.4551H121.358L123.722 51.3487L125.999 44.4551H128.013L124.685 53.8233H122.672ZM113.565 46.0459V48.6973H114.616C115.317 48.6973 115.842 48.6973 116.105 48.5205C116.367 48.4322 116.542 48.2554 116.718 48.0786C116.893 47.9019 116.893 47.6367 116.893 47.3716C116.893 47.0181 116.805 46.753 116.63 46.5762C116.455 46.3111 116.192 46.2227 115.842 46.1343C115.579 46.1343 115.141 46.0459 114.529 46.0459H113.565ZM111.727 53.8233V44.4551H114.704C115.842 44.4551 116.542 44.5435 116.893 44.6318C117.418 44.8086 117.856 45.0737 118.206 45.5156C118.556 45.9575 118.731 46.5762 118.731 47.3716C118.731 47.9903 118.644 48.4322 118.381 48.7857C118.206 49.1392 117.943 49.4927 117.593 49.7579C117.243 50.023 116.98 50.1114 116.63 50.1998C116.192 50.2881 115.492 50.2881 114.704 50.2881H113.478V53.8233H111.727ZM98.9428 50.8184L100.782 50.6417C100.869 51.2603 101.132 51.7022 101.482 51.9674C101.832 52.2325 102.27 52.4093 102.883 52.4093C103.496 52.4093 103.934 52.3209 104.284 52.0557C104.634 51.7906 104.722 51.5255 104.722 51.1719C104.722 50.9068 104.634 50.73 104.547 50.6417C104.459 50.4649 104.196 50.3765 103.846 50.1998C103.584 50.1114 103.146 49.9346 102.358 49.7579C101.395 49.4927 100.606 49.2276 100.256 48.8741C99.7309 48.3438 99.3806 47.7251 99.3806 47.0181C99.3806 46.5762 99.4682 46.1343 99.8185 45.6924C100.081 45.2505 100.519 44.9854 100.957 44.7202C101.482 44.4551 102.095 44.3667 102.795 44.3667C103.934 44.3667 104.809 44.6318 105.422 45.1621C106.035 45.6924 106.298 46.3994 106.385 47.1949L104.547 47.2832C104.459 46.8413 104.284 46.4878 104.021 46.2227C103.759 46.0459 103.408 45.8692 102.883 45.8692C102.358 45.8692 101.92 45.9575 101.57 46.2227C101.395 46.3994 101.307 46.5762 101.307 46.8413C101.307 47.1065 101.395 47.2832 101.57 47.3716C101.832 47.5484 102.358 47.8135 103.321 47.9903C104.196 48.2554 104.897 48.4322 105.335 48.6973C105.773 48.9624 106.123 49.2276 106.385 49.6695C106.648 50.1114 106.736 50.5533 106.736 51.1719C106.736 51.7022 106.561 52.2325 106.298 52.6744C106.035 53.1163 105.597 53.4698 105.072 53.7349C104.547 54.0001 103.846 54.0885 103.058 54.0885C101.92 54.0885 100.957 53.8233 100.344 53.293C99.4682 52.586 99.118 51.7906 98.9428 50.8184ZM90.7998 53.8233V44.4551H97.6294V46.0459H92.6385V48.167H97.2792V49.7579H92.6385V52.3209H97.8046V53.9117H90.7998V53.8233ZM81.5184 53.8233V44.4551H83.3572L87.1222 50.73V44.4551H88.8734V53.8233H87.0347L83.2696 47.7251V53.8233H81.5184ZM77.8409 44.4551H79.6796V53.8233H77.8409V44.4551ZM68.5595 53.8233V44.4551H70.3983V48.167H74.0758V44.4551H75.9146V53.8233H74.0758V49.7579H70.3983V53.8233H68.5595ZM65.1447 50.3765L66.9834 50.9952C66.7207 52.0557 66.2829 52.7628 65.5825 53.293C64.9695 53.8233 64.0939 54.0001 63.1308 54.0001C61.9049 54.0001 60.8542 53.5582 60.0662 52.7628C59.2781 51.879 58.8403 50.73 58.8403 49.316C58.8403 47.7251 59.2781 46.5762 60.0662 45.6924C60.8542 44.8086 61.9049 44.3667 63.2183 44.3667C64.3566 44.3667 65.3198 44.7202 66.0203 45.4273C66.4581 45.7808 66.7207 46.3994 66.9834 47.1065L65.1447 47.5484C65.0571 47.0181 64.7944 46.6646 64.4442 46.3994C64.0939 46.1343 63.6561 45.9575 63.2183 45.9575C62.5179 45.9575 61.9925 46.2227 61.5547 46.753C61.1169 47.2832 60.9418 48.0786 60.9418 49.1392C60.9418 50.2881 61.2045 51.1719 61.5547 51.7022C61.9925 52.2325 62.5179 52.4976 63.2183 52.4976C63.7437 52.4976 64.1815 52.3209 64.5317 52.0557C64.7069 51.6138 64.9695 51.0836 65.1447 50.3765ZM54.725 50.1114L53.4992 46.6646L52.2733 50.1114H54.725ZM58.2274 53.8233H56.2135L55.4255 51.7022H51.6604L50.8724 53.8233H48.8585L52.536 44.4551H54.5499L58.2274 53.8233ZM39.0518 53.8233V44.4551H41.8537L43.5173 50.8184L45.181 44.4551H47.9829V53.8233H46.2317V46.4878L44.3929 53.8233H42.5542L40.7154 46.4878V53.8233H39.0518ZM27.5814 53.8233V44.5435H29.4202V52.2325H34.1484V53.8233H27.5814ZM19.701 53.8233V44.5435H21.5397V52.2325H26.1804V53.8233H19.701ZM10.2445 44.4551H12.0833V49.4927C12.0833 50.2881 12.0833 50.8184 12.1708 51.0836C12.2584 51.4371 12.4335 51.7906 12.6962 51.9674C12.9589 52.2325 13.3967 52.3209 13.922 52.3209C14.4474 52.3209 14.8852 52.2325 15.1479 51.9674C15.4105 51.7906 15.5857 51.5255 15.6732 51.1719C15.7608 50.8184 15.7608 50.2881 15.7608 49.5811V44.3667H17.5995V49.316C17.5995 50.4649 17.512 51.2603 17.4244 51.7022C17.3369 52.1441 17.1617 52.586 16.8991 52.8511C16.6364 53.2047 16.2861 53.4698 15.8483 53.6466C15.4105 53.8233 14.7976 53.9117 14.0971 53.9117C13.2215 53.9117 12.5211 53.8233 12.0833 53.5582C11.6455 53.3814 11.2952 53.1163 11.0325 52.7628C10.7699 52.4093 10.5947 52.0557 10.5072 51.7022C10.4196 51.1719 10.3321 50.3765 10.3321 49.316V44.4551H10.2445ZM2.8019 49.7579V52.2325H4.5531C5.25358 52.2325 5.69138 52.2325 5.8665 52.1441C6.12918 52.1441 6.39186 51.9674 6.47942 51.7906C6.65454 51.6138 6.7421 51.3487 6.7421 50.9952C6.7421 50.73 6.65454 50.4649 6.56698 50.2881C6.39186 50.1114 6.21674 49.9346 5.95406 49.8462C5.69138 49.7579 5.16602 49.7579 4.29042 49.7579H2.8019ZM2.8019 46.0459V48.2554H4.02774C4.72822 48.2554 5.16602 48.2554 5.4287 48.2554C5.77894 48.2554 6.04162 48.0786 6.21674 47.9019C6.39186 47.7251 6.47942 47.46 6.47942 47.1949C6.47942 46.9297 6.39186 46.6646 6.21674 46.4878C6.04162 46.3111 5.77894 46.2227 5.51626 46.1343C5.34114 46.1343 4.81578 46.1343 3.94018 46.1343H2.8019V46.0459ZM0.963135 44.4551H4.64066C5.34114 44.4551 5.95406 44.4551 6.3043 44.5435C6.65454 44.6318 7.00478 44.7202 7.26746 44.897C7.53014 45.0737 7.79282 45.3389 7.96794 45.6924C8.14306 46.0459 8.23062 46.3994 8.23062 46.753C8.23062 47.1949 8.14306 47.6367 7.88038 47.9903C7.6177 48.3438 7.35502 48.6089 6.91722 48.7857C7.53014 48.9624 7.88038 49.2276 8.23062 49.5811C8.4933 50.023 8.66842 50.4649 8.66842 50.9952C8.66842 51.4371 8.58086 51.879 8.40574 52.2325C8.23062 52.6744 7.96794 52.9395 7.6177 53.2047C7.26746 53.4698 6.82966 53.5582 6.39186 53.6466C6.04162 53.6466 5.34114 53.7349 4.1153 53.7349H0.963135V44.4551Z" fill="black"/>
<path d="M141.585 3.27002H149.99V23.9509H163.037V30.6677H141.585V3.27002ZM116.28 3.27002H124.686V23.9509H137.732V30.6677H116.28V3.27002ZM102.358 3.27002H110.764V19.6203C110.764 20.4157 110.676 21.2111 110.588 22.0065C110.501 22.8019 110.238 23.509 110.063 24.216C109.8 24.923 109.538 25.6301 109.1 26.2487C108.662 26.8674 108.224 27.4861 107.699 28.0163C107.174 28.5466 106.648 28.9885 106.035 29.4304C105.51 29.7839 104.897 30.1375 104.284 30.3142C103.496 30.5793 102.62 30.8445 101.57 31.0212C100.607 31.198 99.5559 31.2864 98.4176 31.2864C97.7171 31.2864 97.1042 31.2864 96.3162 31.198C95.6157 31.1096 94.8276 31.1096 94.0396 30.9329C93.2516 30.8445 92.5511 30.7561 91.8506 30.5793C91.1501 30.4026 90.6248 30.1375 90.0994 29.8723C89.574 29.6072 89.0487 29.2537 88.6109 28.9001C88.0855 28.5466 87.6477 28.0163 87.2099 27.4861C86.7721 26.9558 86.4219 26.5139 86.1592 25.9836C85.8965 25.4533 85.6338 24.923 85.4587 24.3928C85.196 23.509 85.0209 22.7136 84.9334 21.9181C84.7582 21.1227 84.7582 20.4157 84.7582 19.797V3.27002H93.164V19.9738C93.164 20.6808 93.2516 21.3879 93.4267 22.0065C93.6018 22.6252 93.952 23.0671 94.3023 23.509C95.1779 24.3928 96.3162 24.7463 97.7171 24.7463C99.1181 24.7463 100.256 24.3044 101.132 23.509C101.57 23.0671 101.832 22.6252 102.008 22.0065C102.183 21.3879 102.358 20.7692 102.358 19.9738V3.27002ZM63.6563 24.7463H67.9467C68.6472 24.7463 69.2601 24.6579 69.7855 24.5695C70.3108 24.4811 70.6611 24.216 71.0113 24.0393C71.274 23.7741 71.5367 23.509 71.7118 23.1555C71.8869 22.8019 71.9745 22.4484 71.9745 22.0065C71.9745 21.5646 71.8869 21.2111 71.7118 20.946C71.5367 20.5924 71.3615 20.3273 71.0989 20.0622C70.8362 19.797 70.3984 19.6203 69.873 19.5319C69.3477 19.4435 68.7347 19.3551 67.9467 19.3551H63.7438V24.7463H63.6563ZM63.6563 13.964H67.3338C68.6472 13.964 69.6103 13.6988 70.0481 13.2569C70.3108 12.9918 70.4859 12.7266 70.6611 12.4615C70.7486 12.108 70.8362 11.7545 70.8362 11.3126C70.8362 10.8707 70.7486 10.5172 70.6611 10.252C70.5735 9.8985 70.3108 9.63336 70.0481 9.4566C69.7855 9.19146 69.4352 9.0147 68.9974 8.92632C68.5596 8.83794 68.0343 8.83794 67.4213 8.83794H63.7438V13.964H63.6563ZM55.2505 3.27002H70.9237C73.5505 3.27002 75.5644 3.88868 76.9654 5.21437C77.6659 5.92141 78.1912 6.62845 78.5415 7.42387C78.8917 8.21928 79.0668 9.10308 79.0668 10.0753C79.0668 10.8707 78.9793 11.6661 78.7166 12.3731C78.4539 13.0802 78.1037 13.6988 77.5783 14.3175C77.2281 14.671 76.7903 15.0245 76.3525 15.378C75.8271 15.6432 75.3017 15.9083 74.6888 16.1735C75.652 16.4386 76.5276 16.7037 77.2281 17.1456C77.9285 17.5875 78.5415 18.0294 78.9793 18.6481C79.4171 19.1784 79.7673 19.8854 80.03 20.5924C80.2927 21.2995 80.3802 22.0949 80.3802 22.9787C80.3802 23.6857 80.2927 24.3928 80.1175 25.0114C79.9424 25.6301 79.7673 26.2487 79.4171 26.779C79.0668 27.3093 78.7166 27.8396 78.2788 28.2815C77.841 28.7234 77.3156 29.1653 76.7903 29.4304C76.44 29.6072 76.0022 29.7839 75.4769 29.9607C74.9515 30.1375 74.3386 30.2258 73.6381 30.3142C72.6749 30.491 71.8869 30.5793 71.274 30.5793C70.6611 30.6677 70.2233 30.6677 69.873 30.6677H55.2505V3.27002Z" fill="#2B2929"/>
<path d="M141.234 2.9165H149.64V23.5974H162.687V30.3142H141.234V2.9165ZM115.93 2.9165H124.335V23.5974H137.469V30.3142H116.017V2.9165H115.93ZM102.007 2.9165H110.413V19.2668C110.413 20.0622 110.326 20.8576 110.238 21.653C110.151 22.4484 109.888 23.1555 109.713 23.8625C109.45 24.5695 109.1 25.2766 108.75 25.8952C108.312 26.5139 107.874 27.1325 107.349 27.6628C106.823 28.1931 106.298 28.635 105.685 29.0769C105.16 29.4304 104.547 29.7839 103.934 29.9607C103.146 30.2258 102.27 30.491 101.219 30.6677C100.256 30.8445 99.2055 30.9329 98.0673 30.9329C97.3668 30.9329 96.7539 30.9329 95.9658 30.8445C95.2653 30.7561 94.4773 30.7561 93.6893 30.5794C92.9012 30.491 92.2007 30.4026 91.5003 30.2258C90.7998 30.0491 90.2744 29.7839 89.7491 29.5188C89.2237 29.2537 88.6983 28.9001 88.2605 28.5466C87.7352 28.1931 87.2974 27.6628 86.8596 27.1325C86.4218 26.6023 86.0715 26.1604 85.8088 25.6301C85.5462 25.0998 85.2835 24.5695 85.1084 24.0393C84.8457 23.1555 84.6706 22.36 84.583 21.5646C84.4079 20.7692 84.4079 20.0622 84.4079 19.4435V2.9165H92.8137V19.6203C92.8137 20.3273 92.9012 21.0343 93.0763 21.653C93.2515 22.2717 93.6017 22.7136 93.9519 23.1555C94.8275 24.0393 95.9658 24.3928 97.3668 24.3928C98.7677 24.3928 99.906 23.9509 100.782 23.1555C101.219 22.7136 101.482 22.2717 101.657 21.653C101.832 21.0343 102.007 20.4157 102.007 19.6203V2.9165ZM63.3935 24.3928H67.6839C68.3844 24.3928 68.9973 24.3044 69.5227 24.216C70.048 24.1276 70.3983 23.8625 70.7485 23.6857C71.0112 23.4206 71.2739 23.1555 71.449 22.8019C71.6241 22.4484 71.7117 22.0949 71.7117 21.653C71.7117 21.2111 71.6241 20.8576 71.449 20.5924C71.2739 20.2389 71.0988 19.9738 70.8361 19.7086C70.5734 19.4435 70.1356 19.2668 69.6102 19.1784C69.0849 19.09 68.472 19.0016 67.6839 19.0016H63.481V24.3928H63.3935ZM63.3935 13.6988H67.071C68.3844 13.6988 69.3476 13.4337 69.7854 12.9918C70.048 12.7267 70.2232 12.4615 70.3983 12.1964C70.4858 11.8429 70.5734 11.4893 70.5734 11.0474C70.5734 10.6055 70.4858 10.252 70.3983 9.98688C70.3107 9.63336 70.048 9.36822 69.7854 9.19146C69.5227 8.92632 69.1724 8.74956 68.7346 8.66119C68.2968 8.57281 67.7715 8.48443 67.1586 8.48443H63.481V13.6988H63.3935ZM54.9001 2.9165H70.5734C73.2002 2.9165 75.2141 3.53516 76.615 4.86086C77.3155 5.5679 77.8409 6.27493 78.1911 7.07035C78.5414 7.86577 78.7165 8.74956 78.7165 9.72174C78.7165 10.5172 78.6289 11.3126 78.3662 12.0196C78.1036 12.7267 77.7533 13.3453 77.228 13.964C76.8777 14.3175 76.4399 14.671 76.0021 15.0245C75.4768 15.2897 74.9514 15.5548 74.3385 15.8199C75.3016 16.0851 76.1772 16.3502 76.8777 16.7921C77.5782 17.234 78.1911 17.6759 78.6289 18.2946C79.0667 18.9132 79.417 19.5319 79.6796 20.2389C79.9423 20.946 80.0299 21.7414 80.0299 22.6252C80.0299 23.3322 79.9423 24.0393 79.7672 24.6579C79.5921 25.2766 79.417 25.8952 79.0667 26.4255C78.7165 26.9558 78.3662 27.4861 77.9284 27.928C77.4906 28.3699 76.9653 28.8118 76.4399 29.0769C76.0897 29.2537 75.6519 29.4304 75.1265 29.6072C74.6012 29.7839 73.9882 29.8723 73.2878 29.9607C72.3246 30.1375 71.5366 30.2258 70.9236 30.2258C70.3107 30.3142 69.8729 30.3142 69.5227 30.3142H54.9001V2.9165Z" fill="#E31F24"/>
<path fill-rule="evenodd" clip-rule="evenodd" d="M9.98185 19.1784L9.89429 19.0016C9.45649 18.1178 9.19381 17.1457 9.10625 16.4386C8.93113 15.5548 9.01869 14.4059 9.19381 13.5221C9.28137 13.1686 9.36893 12.9034 9.45649 12.5499H9.36893V12.3732H9.28137C6.65456 13.4337 3.67752 10.6056 4.64068 7.86579C5.2536 6.0982 7.17992 5.12602 7.96797 3.44681C8.31821 2.73977 8.3182 1.85597 7.79284 1.23732C7.4426 0.972177 7.09236 0.795417 6.65456 0.795417C5.34116 0.795417 5.34116 2.03273 4.8158 2.91653C4.55312 3.27005 4.11532 3.62357 3.67752 3.71195C2.71436 3.88871 2.27656 2.91653 1.66364 2.47463C1.40096 2.29787 0.963161 2.29787 0.788041 2.03273C0.61292 1.67921 0.4378 1.3257 0.26268 0.972177C0.17512 0.972177 0.0875601 0.883797 0 0.795417V0.530278C0.61292 0.618658 0.788041 1.06056 1.22584 1.14894C1.66364 1.23732 1.92632 0.883797 2.36412 0.883797C2.80192 0.883797 3.15216 1.23732 3.58996 1.3257C4.02776 1.3257 4.99092 0.618658 5.42872 0.441899C5.77896 0.265139 6.1292 0.176759 6.47944 0C7.35504 0 8.49333 0.441899 8.75601 1.23732C9.71917 4.06547 6.74212 5.56792 5.86652 7.68903C4.99092 9.81015 7.17992 11.0475 8.93113 11.0475C9.28137 10.8707 9.63161 10.6939 10.0694 10.6056C11.6455 9.63339 13.5718 8.30769 15.5857 8.30769C16.3737 8.30769 16.9867 8.66121 17.5996 8.83797C18.1249 8.92635 18.6503 8.83797 19.2632 8.92635C21.6273 9.54501 24.4293 9.54501 26.3556 7.24714C26.7058 6.80524 26.6183 6.18658 26.7058 5.6563C26.8809 4.24223 28.1068 3.09329 29.4202 2.82815C32.9226 2.12111 35.1116 5.74468 37.3881 7.68903C37.8259 8.04255 38.1762 8.66121 38.7015 8.74959C39.2269 8.83797 39.4896 9.27987 39.7523 9.54501C40.1025 10.0753 41.0657 10.6056 41.591 11.1358C42.1164 11.6661 43.78 14.1408 44.3054 14.1408V14.0524C44.6556 13.7872 44.7432 13.3453 45.0934 12.9918C45.7063 12.2848 48.158 10.252 49.0336 10.252C49.0336 10.9591 48.158 11.4894 47.8078 11.9313C47.4576 12.4615 47.1949 12.9918 46.9322 13.5221C46.6695 13.964 46.8446 14.0524 47.0198 13.964C47.4576 13.5221 49.8217 11.7545 50.347 11.7545C50.2595 12.2848 49.9092 12.5499 49.3839 12.9918C49.0336 13.4337 48.5958 13.964 48.2456 14.4059C47.8954 14.9362 47.5451 15.4664 47.1949 15.9967C46.9322 16.2619 46.7571 16.6154 46.4944 16.8805C46.0566 17.7643 45.7063 18.6481 45.0934 19.4435C44.7432 19.7971 44.3054 20.0622 43.9552 20.4157C43.4298 20.946 42.8169 21.4763 42.2915 22.0065C41.9413 22.2717 41.591 22.5368 41.2408 22.802C40.7154 23.2439 40.3652 23.9509 39.7523 24.0393C39.402 24.0393 38.9642 23.8625 38.7015 23.6858C37.213 22.802 38.3513 21.3879 37.6508 20.6809C37.3881 20.5925 37.0379 21.2111 36.5125 20.5041C35.9872 20.7692 35.6369 21.0344 34.6738 20.6809C33.9733 21.1228 36.2499 23.8625 36.2499 24.5696C36.2499 24.6579 36.2499 24.6579 36.1623 24.7463C36.0747 25.0998 35.8996 25.2766 35.4618 25.7185C35.1116 26.4255 34.7613 27.0442 34.4111 27.6628C34.236 28.0164 34.236 28.3699 33.7106 28.635C33.5355 28.9002 33.7982 30.491 33.4479 30.491H32.2221L32.1345 29.4304C32.1345 28.9885 32.5723 28.635 32.5723 28.4583C32.5723 28.1931 32.3097 28.0164 32.4848 27.8396C33.0977 27.3977 34.1484 25.6301 34.236 24.8347C34.1484 24.5696 33.8857 24.4812 33.7106 24.3044C33.4479 24.1277 33.0977 23.8625 32.835 23.8625C32.6599 24.1277 32.5723 25.0115 32.3097 25.2766C31.5216 25.9836 30.0331 26.072 29.1575 26.3372C28.9824 26.5139 28.8073 26.7791 28.2819 26.7791C27.7565 27.1326 27.4939 27.7512 26.7934 27.8396C26.7934 27.8396 26.268 26.5139 26.0929 26.4255C26.3556 26.1604 26.5307 26.4255 26.7058 26.1604C26.8809 25.9836 27.5814 25.8953 27.5814 25.8069H27.669C27.669 25.6301 27.5814 25.1882 27.7565 25.1882C28.2819 24.8347 30.3833 25.2766 30.4709 24.4812C30.5585 24.0393 29.9455 23.0671 29.6829 22.7136C27.4063 20.0622 27.669 21.9182 24.1666 22.0065C23.9915 22.0065 24.079 22.4484 24.079 22.6252H23.9915V22.7136C22.9407 22.6252 22.2403 22.0065 21.2771 21.7414C20.4015 21.4763 19.2632 21.0344 18.3876 21.3879C18.1249 21.4763 17.8623 21.5646 17.5996 21.5646C17.512 22.0065 17.3369 22.4484 17.0742 22.8903C16.4613 23.7741 15.8484 24.1277 15.323 25.0998C15.323 25.8069 14.9728 26.1604 14.6225 27.0442C14.2723 27.7512 14.1847 28.5466 13.922 29.1653C13.8345 29.2537 14.0096 29.4304 14.0096 29.6072C14.1847 30.1375 14.0972 30.2259 14.0096 30.491C13.3967 30.491 13.3091 30.4026 12.4335 30.5794C12.5211 30.1375 12.2584 29.6072 12.7838 28.635C12.7838 28.635 12.7838 28.5466 12.7838 28.4583C12.7838 28.3699 12.6962 28.1931 12.6962 28.0164C12.6086 27.7512 12.5211 27.4861 12.4335 27.3977C13.8345 25.7185 13.3967 23.9509 12.1708 22.5368L11.9957 22.6252C11.8206 22.7136 11.733 22.802 11.5579 22.8903C11.4704 22.9787 11.3828 23.0671 11.2952 23.1555C11.3828 23.8625 11.0326 24.4812 10.5072 24.8347C9.19381 25.8069 9.28137 27.0442 7.88041 27.5745C7.53016 27.8396 8.05553 28.1047 6.47944 29.0769C6.1292 28.3699 5.6914 27.7512 5.6914 27.5745C6.04164 26.7791 6.30432 26.7791 7.09236 26.3372C7.26749 26.2488 7.70529 26.072 7.70529 26.2488C7.70529 26.2488 7.79284 26.2488 7.79284 26.1604C7.79284 26.072 7.70529 25.9836 7.70529 25.8953L7.88041 25.0998L8.66845 24.8347C8.84357 24.7463 8.93113 24.5696 9.10625 24.3928C9.63161 23.6858 9.63161 22.8903 9.89429 22.0949C10.0694 21.653 10.0694 21.3879 10.157 20.946C10.0694 20.0622 10.157 19.6203 9.98185 19.1784Z" fill="#2B2929"/>
<path fill-rule="evenodd" clip-rule="evenodd" d="M36.7752 20.0623C36.2499 20.9461 36.5126 20.6809 36.7752 20.0623V20.0623Z" fill="white"/>
<path fill-rule="evenodd" clip-rule="evenodd" d="M37.7383 20.239C37.3005 21.1228 37.4757 20.8577 37.7383 20.239V20.239Z" fill="white"/>
<path fill-rule="evenodd" clip-rule="evenodd" d="M17.5995 21.5647V21.4764C17.687 19.1785 17.4243 17.676 16.899 16.5271C16.6363 15.9084 16.8114 16.3503 16.899 16.5271C17.5995 17.676 17.8622 19.7088 17.5995 21.5647Z" fill="white"/>
<path fill-rule="evenodd" clip-rule="evenodd" d="M32.7475 24.1277L32.835 23.951C33.7106 21.2112 32.3097 19.2669 31.4341 18.6482C32.7475 19.6204 33.5355 22.2718 32.7475 24.1277Z" fill="white"/>
<path fill-rule="evenodd" clip-rule="evenodd" d="M28.0194 21.2996V21.2112C27.3189 20.239 27.4065 19.532 27.4065 19.532C27.3189 19.532 27.2313 20.239 28.0194 21.2996Z" fill="white"/>
<path fill-rule="evenodd" clip-rule="evenodd" d="M26.6183 6.7168L26.5308 6.89356C26.5308 8.39601 26.881 9.19143 27.1437 10.1636C26.7934 8.92629 26.5308 7.95411 26.6183 6.7168Z" fill="white"/>
<path fill-rule="evenodd" clip-rule="evenodd" d="M38.7015 8.83789C38.1761 8.92627 37.6508 9.19141 37.213 9.72169C36.6001 10.4287 36.2498 11.4009 36.0747 11.4893C36.2498 11.4893 36.6001 10.5171 37.213 9.81007C37.7383 9.01465 38.3513 8.83789 38.7015 8.83789Z" fill="white"/>
<path fill-rule="evenodd" clip-rule="evenodd" d="M39.8399 9.81006C39.227 9.89844 38.6141 10.252 38.0011 10.8706C37.2131 11.666 36.8629 12.9033 36.6877 12.9917C36.8629 12.9033 37.3882 11.8428 38.0887 10.959C38.7892 10.0752 39.4897 9.81006 39.8399 9.81006Z" fill="white"/>
<path fill-rule="evenodd" clip-rule="evenodd" d="M34.6737 20.7693C34.6737 20.7693 34.4985 20.5925 34.4985 20.5042C34.5861 20.4158 34.1483 20.239 34.1483 20.239C34.0607 20.239 34.4985 20.4158 34.4985 20.5042L34.6737 20.7693Z" fill="white"/>
<path fill-rule="evenodd" clip-rule="evenodd" d="M38.5264 23.6858L38.789 23.4207C38.789 23.5974 38.789 23.6858 38.6139 23.7742C38.5264 23.7742 38.5264 23.7742 38.5264 23.6858Z" fill="white"/>
<path fill-rule="evenodd" clip-rule="evenodd" d="M19.7887 20.8577L20.0514 21.2996H19.9638C19.7887 21.2112 19.6136 21.2112 19.4385 21.2112C19.526 21.1228 19.7012 21.2112 19.7887 20.946C19.7887 21.0344 19.7887 20.8577 19.7887 20.8577Z" fill="white"/>
<path fill-rule="evenodd" clip-rule="evenodd" d="M9.98193 19.2668L12.5212 22.9788C11.558 21.5647 11.3829 21.2996 9.98193 19.2668Z" fill="white"/>
<path fill-rule="evenodd" clip-rule="evenodd" d="M0.61289 0.79541C0.78801 1.06055 0.96313 1.50245 1.31337 1.76759C0.96313 1.41407 0.96313 1.41407 0.61289 0.79541Z" fill="white"/>
<path fill-rule="evenodd" clip-rule="evenodd" d="M46.7571 14.0522C46.6695 14.1406 46.5819 14.229 46.4944 14.3174C46.5819 14.229 46.5819 14.229 46.7571 14.0522Z" fill="white"/>
</g>
<defs>
<clipPath id="clip0_93_117">
<rect width="164" height="54" fill="white"/>
</clipPath>
</defs>
</svg>
