<svg width="602" height="123" viewBox="0 0 602 123" fill="none" xmlns="http://www.w3.org/2000/svg">
<path d="M639.511 59.7383H553.916L508.221 14.043H547.675L575.761 42.1289H657.344L639.511 59.7383ZM554.139 58.6238H638.843L654.223 43.2434H574.869L546.783 15.1575H510.673L554.139 58.6238Z" fill="#EC3237"/>
<path d="M338.591 97.1861H279.076L376.262 0H495.07L510.45 15.3804H420.174L338.591 97.1861ZM281.973 96.0716H338.368L420.174 14.2658H508.221L495.07 1.11452H376.93L281.973 96.0716Z" fill="#EC3237"/>
<g opacity="0.63">
<path d="M338.368 96.5173H280.636L376.708 0.445801H495.07L509.335 14.7116H420.397L338.368 96.5173Z" fill="#EC3237"/>
<path d="M338.591 97.1861H279.076L376.262 0H495.07L510.45 15.3804H420.174L338.591 97.1861ZM281.973 96.0716H338.368L420.174 14.2658H508.221L495.07 1.11452H376.93L281.973 96.0716Z" fill="#EC3237"/>
</g>
<path d="M255.225 122.597H0L26.7485 95.8486H281.973L255.225 122.597ZM2.67487 121.483H254.779L279.299 96.9632H27.1943L2.67487 121.483Z" fill="#EC3237"/>
</svg>
