<svg width="57" height="195" viewBox="0 0 57 195" fill="none" xmlns="http://www.w3.org/2000/svg">
<path d="M4.60311 11.3051C3.80311 12.1348 3.90312 13.172 4.70312 14.0017C5.60312 14.9352 6.70311 14.7277 7.60311 13.898C9.50311 11.9274 7.70312 10.2679 6.20312 8.91962L6.60311 8.50473L12.1031 6.63784L8.30312 2.69663L10.9031 0L18.7031 8.19359L18.2031 8.71217L11.7031 10.6828C13.1031 13.2757 12.1031 15.4537 10.5031 17.1132C8.4031 19.2913 4.70313 19.9135 1.90313 16.9058C-0.496872 14.4166 -0.696884 10.8902 1.70312 8.29731L4.60311 11.3051Z" fill="black"/>
<path d="M26.3032 17.8392C29.8032 22.5065 28.1032 27.6923 24.7032 30.3889C21.3032 33.1893 16.0032 33.6041 12.4032 28.8332L8.30322 23.3362L22.2032 12.3423L26.3032 17.8392ZM15.7032 26.1366C17.4032 28.4183 20.0032 28.0035 21.9032 26.5514C23.7032 25.0994 24.7032 22.5065 23.1032 20.2247L21.9032 18.5653L14.6032 24.3734L15.7032 26.1366Z" fill="black"/>
<path d="M29.203 49.2655L25.903 51.1324L21.603 42.9388L24.903 41.072L26.003 43.1463L34.903 38.1679L33.903 36.301L37.203 34.4341L41.303 42.3165L38.003 44.1834L37.003 42.3165L28.103 47.2949L29.203 49.2655Z" fill="black"/>
<path d="M37.4032 54.4511L29.0032 57.8737L27.3032 53.4139L43.6032 46.6724L44.1032 48.0207L39.5032 60.1555L47.4032 56.8366L49.1032 61.2964L32.8032 68.038L32.3032 66.6896L37.4032 54.4511Z" fill="black"/>
<path d="M46.5032 66.586L50.4032 65.5488L53.7032 78.6171L49.8032 79.6543L48.7032 75.4019L35.6032 78.9283L34.5032 74.4684L47.6032 70.9421L46.5032 66.586Z" fill="black"/>
<path d="M52.003 94.3818L51.103 87.8476L48.603 88.2625L49.503 94.278L45.503 94.9004L44.603 88.8848L41.803 89.2997L42.803 96.0412L38.703 96.6635L37.103 85.2547L54.403 82.5581L56.003 93.7595L52.003 94.3818Z" fill="black"/>
<path d="M40.0032 114.918H39.4032L39.3032 109.94L44.7032 106.724L44.6032 104.235L39.1032 104.339L39.0032 99.5679L56.5032 99.0493C56.6032 101.746 56.7032 104.339 56.7032 107.035C56.8032 111.392 53.7032 113.673 50.7032 113.777C48.7032 113.777 46.8032 112.947 45.5032 111.184L40.0032 114.918ZM48.4032 107.243C48.4032 108.591 49.6032 109.214 50.7032 109.11C51.8032 109.11 52.8032 108.384 52.8032 107.035L52.7032 103.717L48.4032 103.82V107.243Z" fill="black"/>
<path d="M41.0032 121.141L38.9032 119.896L39.4032 114.918L40.0032 115.022L56.1032 125.186L55.9032 127.364L38.1032 133.691L37.5032 133.587L38.0032 128.712L40.3032 127.883L41.0032 121.141ZM44.7032 123.008L44.3032 126.742L48.7032 125.29L44.7032 123.008Z" fill="black"/>
<path d="M50.9032 134.935L54.8032 135.765L52.0032 148.937L48.1032 148.107L49.0032 143.751L35.8032 140.743L36.7032 136.283L49.9032 139.291L50.9032 134.935Z" fill="black"/>
<path d="M35.2031 156.612L31.7031 155.471L34.5031 146.551L38.0031 147.692L37.3031 149.87L46.9031 153.085L47.5031 151.115L51.0031 152.256L48.4031 160.76L44.9031 159.62L45.5031 157.649L35.9031 154.434L35.2031 156.612Z" fill="black"/>
<path d="M35.203 167.709L38.803 171.028L42.703 175.281L40.703 179.948L40.103 179.637L27.603 165.324L28.403 163.561H47.003L47.603 163.872L45.603 168.539L40.003 168.435L35.203 167.709Z" fill="black"/>
<path d="M19.7031 180.156C22.1031 176.111 27.0031 173.933 32.1031 177.252C37.2031 180.57 37.5031 186.171 35.1031 190.216C32.7031 194.157 27.8031 196.439 22.7031 193.12C18.1031 190.112 16.9031 184.823 19.7031 180.156ZM23.4031 182.541C22.3031 184.408 22.5031 187.312 25.1031 188.971C27.7031 190.631 30.3031 189.697 31.4031 187.727C32.6031 185.756 32.4031 182.956 29.7031 181.193C27.1031 179.533 24.6031 180.57 23.4031 182.541Z" fill="black"/>
</svg>
